<svg width="501" height="500" viewBox="0 0 501 500" fill="none" xmlns="http://www.w3.org/2000/svg">
<path d="M57.8777 31.0227V396.939H436.788V31.0227H57.8777ZM428.523 388.647H66.142V39.3133H428.523V388.647Z" fill="#DBDBDB"/>
<path d="M428.523 39.3133H66.142V388.647H428.523V39.3133Z" fill="#151515"/>
<path d="M240.788 100.453L241.717 102.34L243.792 102.642L242.291 104.109L242.646 106.184L240.788 105.205L238.932 106.184L239.287 104.109L237.785 102.642L239.861 102.34L240.788 100.453Z" fill="white"/>
<path d="M90.7288 295.555L91.6562 297.441L93.7324 297.744L92.23 299.212L92.5847 301.287L90.7288 300.307L88.8728 301.287L89.2264 299.212L87.7252 297.744L89.8002 297.441L90.7288 295.555Z" fill="white"/>
<path d="M237.785 235.345L238.713 237.232L240.788 237.534L239.287 239.003L239.642 241.076L237.785 240.097L235.929 241.076L236.284 239.003L234.782 237.534L236.857 237.232L237.785 235.345Z" fill="white"/>
<path d="M407.287 62.6135L408.216 64.4992L410.291 64.8026L408.788 66.2703L409.143 68.3447L407.287 67.3655L405.431 68.3447L405.785 66.2703L404.284 64.8026L406.359 64.4992L407.287 62.6135Z" fill="white"/>
<path d="M112.195 79.2962L113.124 81.1819L115.199 81.4853L113.697 82.953L114.051 85.0275L112.195 84.0482L110.34 85.0275L110.693 82.953L109.192 81.4853L111.267 81.1819L112.195 79.2962Z" fill="white"/>
<path d="M192.153 226.754L192.726 227.92L194.009 228.107L193.081 229.014L193.3 230.296L192.153 229.691L191.006 230.296L191.225 229.014L190.297 228.107L191.579 227.92L192.153 226.754Z" fill="white"/>
<path d="M166.004 192.652L166.578 193.818L167.86 194.006L166.932 194.913L167.151 196.195L166.004 195.589L164.856 196.195L165.075 194.913L164.148 194.006L165.43 193.818L166.004 192.652Z" fill="white"/>
<path d="M409.143 137.609L409.717 138.774L410.999 138.962L410.072 139.869L410.291 141.151L409.143 140.545L407.997 141.151L408.215 139.869L407.287 138.962L408.569 138.774L409.143 137.609Z" fill="white"/>
<path d="M98.286 70.3296L98.8598 71.4952L100.142 71.6827L99.2134 72.5904L99.4336 73.8718L98.286 73.2663L97.1384 73.8718L97.3574 72.5904L96.4288 71.6827L97.7122 71.4952L98.286 70.3296Z" fill="white"/>
<path d="M335.771 84.3026L336.344 85.4682L337.626 85.6545L336.699 86.5621L336.918 87.8448L335.771 87.2393L334.623 87.8448L334.842 86.5621L333.915 85.6545L335.197 85.4682L335.771 84.3026Z" fill="white"/>
<path d="M290.298 125.482L290.872 126.648L292.154 126.835L291.225 127.743L291.444 129.024L290.298 128.419L289.15 129.024L289.369 127.743L288.441 126.835L289.724 126.648L290.298 125.482Z" fill="white"/>
<path d="M252.617 185.832L253.191 186.999L254.473 187.185L253.546 188.093L253.765 189.374L252.617 188.769L251.469 189.374L251.688 188.093L250.761 187.185L252.043 186.999L252.617 185.832Z" fill="white"/>
<path d="M85.5074 133.872L86.0812 135.039L87.3634 135.225L86.4348 136.133L86.6538 137.414L85.5074 136.809L84.3598 137.414L84.5788 136.133L83.6503 135.225L84.9336 135.039L85.5074 133.872Z" fill="white"/>
<path d="M126.341 254.617L126.915 255.784L128.197 255.97L127.268 256.878L127.488 258.159L126.341 257.555L125.193 258.159L125.412 256.878L124.484 255.97L125.767 255.784L126.341 254.617Z" fill="white"/>
<path d="M388.449 182.891L389.023 184.057L390.306 184.244L389.378 185.151L389.597 186.433L388.449 185.828L387.303 186.433L387.522 185.151L386.593 184.244L387.876 184.057L388.449 182.891Z" fill="white"/>
<path d="M276.629 56.918L277.201 58.0836L278.485 58.2711L277.556 59.1776L277.775 60.459L276.629 59.8547L275.481 60.459L275.7 59.1776L274.772 58.2711L276.055 58.0836L276.629 56.918Z" fill="white"/>
<path d="M204.644 158.709L205.218 159.876L206.5 160.062L205.573 160.97L205.792 162.251L204.644 161.646L203.497 162.251L203.716 160.97L202.788 160.062L204.071 159.876L204.644 158.709Z" fill="white"/>
<path d="M172.145 62.119L172.718 63.2847L174.001 63.4722L173.073 64.3798L173.292 65.6613L172.145 65.0558L170.998 65.6613L171.217 64.3798L170.288 63.4722L171.572 63.2847L172.145 62.119Z" fill="white"/>
<path d="M164.148 275.329L164.722 276.495L166.004 276.682L165.075 277.59L165.294 278.871L164.148 278.266L163 278.871L163.219 277.59L162.292 276.682L163.574 276.495L164.148 275.329Z" fill="white"/>
<path d="M209.686 86.0737L210.26 87.2393L211.543 87.4268L210.615 88.3332L210.834 89.6147L209.686 89.0104L208.54 89.6147L208.759 88.3332L207.83 87.4268L209.113 87.2393L209.686 86.0737Z" fill="white"/>
<path d="M354.109 110.102C358.787 118.303 367.599 123.832 377.696 123.832C392.717 123.832 404.881 111.619 404.881 96.5486C404.881 83.5621 395.843 72.7015 383.721 69.957C392.46 73.9901 398.517 82.8503 398.517 93.1234C398.517 107.213 387.124 118.632 373.08 118.632C365.532 118.633 358.756 115.343 354.109 110.102Z" fill="white"/>
<path d="M361.372 112.27H322.878V388.644H361.372V112.27Z" fill="#37474F"/>
<path d="M361.372 129.528H322.881V132.766H361.372V129.528Z" fill="#263238"/>
<path d="M333.932 142.281H326.848V160.29H333.932V142.281Z" fill="#263238"/>
<path d="M333.932 165.005H326.848V183.015H333.932V165.005Z" fill="#263238"/>
<path d="M333.932 187.729H326.848V205.738H333.932V187.729Z" fill="#263238"/>
<path d="M333.932 210.44H326.848V228.449H333.932V210.44Z" fill="#263238"/>
<path d="M333.932 233.163H326.848V251.173H333.932V233.163Z" fill="#263238"/>
<path d="M333.932 255.888H326.848V273.897H333.932V255.888Z" fill="#263238"/>
<path d="M333.932 278.598H326.848V296.608H333.932V278.598Z" fill="#263238"/>
<path d="M333.932 301.322H326.848V319.332H333.932V301.322Z" fill="#263238"/>
<path d="M333.932 324.046H326.848V342.055H333.932V324.046Z" fill="#263238"/>
<path d="M333.932 346.757H326.848V364.767H333.932V346.757Z" fill="#263238"/>
<path d="M333.932 369.481H326.848V387.49H333.932V369.481Z" fill="#263238"/>
<path d="M333.932 142.281H326.848V160.29H333.932V142.281Z" fill="#263238"/>
<path d="M333.932 165.005H326.848V183.015H333.932V165.005Z" fill="#263238"/>
<path d="M333.932 187.729H326.848V205.738H333.932V187.729Z" fill="#263238"/>
<path d="M333.932 210.44H326.848V228.449H333.932V210.44Z" fill="#263238"/>
<path d="M333.932 233.163H326.848V251.173H333.932V233.163Z" fill="#263238"/>
<path d="M333.932 255.888H326.848V273.897H333.932V255.888Z" fill="#263238"/>
<path d="M333.932 278.598H326.848V296.608H333.932V278.598Z" fill="#263238"/>
<path d="M333.932 301.322H326.848V319.332H333.932V301.322Z" fill="#263238"/>
<path d="M333.932 324.046H326.848V342.055H333.932V324.046Z" fill="#263238"/>
<path d="M333.932 346.757H326.848V364.767H333.932V346.757Z" fill="#263238"/>
<path d="M333.932 369.481H326.848V387.49H333.932V369.481Z" fill="#263238"/>
<path d="M345.669 142.281H338.585V160.29H345.669V142.281Z" fill="#263238"/>
<path d="M345.669 165.005H338.585V183.015H345.669V165.005Z" fill="#263238"/>
<path d="M345.669 187.729H338.585V205.738H345.669V187.729Z" fill="#263238"/>
<path d="M345.669 210.44H338.585V228.449H345.669V210.44Z" fill="#263238"/>
<path d="M345.669 233.163H338.585V251.173H345.669V233.163Z" fill="#263238"/>
<path d="M345.669 255.888H338.585V273.897H345.669V255.888Z" fill="#263238"/>
<path d="M345.669 278.598H338.585V296.608H345.669V278.598Z" fill="#263238"/>
<path d="M345.669 301.322H338.585V319.332H345.669V301.322Z" fill="#263238"/>
<path d="M345.669 324.046H338.585V342.055H345.669V324.046Z" fill="#263238"/>
<path d="M345.669 346.757H338.585V364.767H345.669V346.757Z" fill="#263238"/>
<path d="M345.669 369.481H338.585V387.49H345.669V369.481Z" fill="#263238"/>
<path d="M345.669 142.281H338.585V160.29H345.669V142.281Z" fill="#263238"/>
<path d="M345.669 165.005H338.585V183.015H345.669V165.005Z" fill="#263238"/>
<path d="M345.669 187.729H338.585V205.738H345.669V187.729Z" fill="#EBEBEB"/>
<path d="M345.669 210.44H338.585V228.449H345.669V210.44Z" fill="#263238"/>
<path d="M345.669 233.163H338.585V251.173H345.669V233.163Z" fill="#263238"/>
<path d="M345.669 255.888H338.585V273.897H345.669V255.888Z" fill="#263238"/>
<path d="M345.669 278.598H338.585V296.608H345.669V278.598Z" fill="#263238"/>
<path d="M345.669 301.322H338.585V319.332H345.669V301.322Z" fill="#EBEBEB"/>
<path d="M345.669 324.046H338.585V342.055H345.669V324.046Z" fill="#263238"/>
<path d="M345.669 346.757H338.585V364.767H345.669V346.757Z" fill="#263238"/>
<path d="M345.669 369.481H338.585V387.49H345.669V369.481Z" fill="#263238"/>
<path d="M357.405 142.281H350.32V160.29H357.405V142.281Z" fill="#263238"/>
<path d="M357.405 165.005H350.32V183.015H357.405V165.005Z" fill="#263238"/>
<path d="M357.405 187.729H350.32V205.738H357.405V187.729Z" fill="#263238"/>
<path d="M357.405 210.44H350.32V228.449H357.405V210.44Z" fill="#263238"/>
<path d="M357.405 233.163H350.32V251.173H357.405V233.163Z" fill="#263238"/>
<path d="M357.405 255.888H350.32V273.897H357.405V255.888Z" fill="#263238"/>
<path d="M357.405 278.598H350.32V296.608H357.405V278.598Z" fill="#263238"/>
<path d="M357.405 301.322H350.32V319.332H357.405V301.322Z" fill="#263238"/>
<path d="M357.405 324.046H350.32V342.055H357.405V324.046Z" fill="#263238"/>
<path d="M357.405 346.757H350.32V364.767H357.405V346.757Z" fill="#263238"/>
<path d="M357.405 369.481H350.32V387.49H357.405V369.481Z" fill="#263238"/>
<path d="M357.405 142.281H350.32V160.29H357.405V142.281Z" fill="#EBEBEB"/>
<path d="M357.405 165.005H350.32V183.015H357.405V165.005Z" fill="#263238"/>
<path d="M357.405 187.729H350.32V205.738H357.405V187.729Z" fill="#263238"/>
<path d="M357.405 210.44H350.32V228.449H357.405V210.44Z" fill="#263238"/>
<path d="M357.405 233.163H350.32V251.173H357.405V233.163Z" fill="#263238"/>
<path d="M357.405 255.888H350.32V273.897H357.405V255.888Z" fill="#263238"/>
<path d="M357.405 278.598H350.32V296.608H357.405V278.598Z" fill="#263238"/>
<path d="M357.405 301.322H350.32V319.332H357.405V301.322Z" fill="#263238"/>
<path d="M357.405 324.046H350.32V342.055H357.405V324.046Z" fill="#263238"/>
<path d="M357.405 346.757H350.32V364.767H357.405V346.757Z" fill="#263238"/>
<path d="M357.405 369.481H350.32V387.49H357.405V369.481Z" fill="#263238"/>
<path d="M322.878 112.27H257.081V388.644H322.878V112.27Z" fill="#37474F"/>
<path d="M322.881 129.528H257.081V132.766H322.881V129.528Z" fill="#263238"/>
<path d="M275.634 142.281H264.131V160.29H275.634V142.281Z" fill="#263238"/>
<path d="M275.634 165.005H264.131V183.015H275.634V165.005Z" fill="#263238"/>
<path d="M275.634 187.729H264.131V205.738H275.634V187.729Z" fill="#263238"/>
<path d="M275.634 210.44H264.131V228.449H275.634V210.44Z" fill="#263238"/>
<path d="M275.634 233.163H264.131V251.173H275.634V233.163Z" fill="#263238"/>
<path d="M275.634 255.888H264.131V273.897H275.634V255.888Z" fill="#263238"/>
<path d="M275.634 278.598H264.131V296.608H275.634V278.598Z" fill="#263238"/>
<path d="M275.634 301.322H264.131V319.332H275.634V301.322Z" fill="#263238"/>
<path d="M275.634 324.046H264.131V342.055H275.634V324.046Z" fill="#263238"/>
<path d="M275.634 346.757H264.131V364.767H275.634V346.757Z" fill="#263238"/>
<path d="M275.634 369.481H264.131V387.49H275.634V369.481Z" fill="#263238"/>
<path d="M275.634 142.281H264.131V160.29H275.634V142.281Z" fill="#263238"/>
<path d="M275.634 165.005H264.131V183.015H275.634V165.005Z" fill="#263238"/>
<path d="M275.634 187.729H264.131V205.738H275.634V187.729Z" fill="#263238"/>
<path d="M275.634 210.44H264.131V228.449H275.634V210.44Z" fill="#263238"/>
<path d="M275.634 233.163H264.131V251.173H275.634V233.163Z" fill="#263238"/>
<path d="M275.634 255.888H264.131V273.897H275.634V255.888Z" fill="#263238"/>
<path d="M275.634 278.598H264.131V296.608H275.634V278.598Z" fill="#263238"/>
<path d="M275.634 301.322H264.131V319.332H275.634V301.322Z" fill="#263238"/>
<path d="M275.634 324.046H264.131V342.055H275.634V324.046Z" fill="#263238"/>
<path d="M275.634 346.757H264.131V364.767H275.634V346.757Z" fill="#EBEBEB"/>
<path d="M275.634 369.481H264.131V387.49H275.634V369.481Z" fill="#263238"/>
<path d="M294.687 142.281H283.185V160.29H294.687V142.281Z" fill="#263238"/>
<path d="M294.687 165.005H283.185V183.015H294.687V165.005Z" fill="#263238"/>
<path d="M294.687 187.729H283.185V205.738H294.687V187.729Z" fill="#263238"/>
<path d="M294.687 210.44H283.185V228.449H294.687V210.44Z" fill="#263238"/>
<path d="M294.687 233.163H283.185V251.173H294.687V233.163Z" fill="#263238"/>
<path d="M294.687 255.888H283.185V273.897H294.687V255.888Z" fill="#263238"/>
<path d="M294.687 278.598H283.185V296.608H294.687V278.598Z" fill="#263238"/>
<path d="M294.687 301.322H283.185V319.332H294.687V301.322Z" fill="#263238"/>
<path d="M294.687 324.046H283.185V342.055H294.687V324.046Z" fill="#263238"/>
<path d="M294.687 346.757H283.185V364.767H294.687V346.757Z" fill="#263238"/>
<path d="M294.687 369.481H283.185V387.49H294.687V369.481Z" fill="#263238"/>
<path d="M294.687 142.281H283.185V160.29H294.687V142.281Z" fill="#263238"/>
<path d="M294.687 165.005H283.185V183.015H294.687V165.005Z" fill="#EBEBEB"/>
<path d="M294.687 187.729H283.185V205.738H294.687V187.729Z" fill="#263238"/>
<path d="M294.687 210.44H283.185V228.449H294.687V210.44Z" fill="#263238"/>
<path d="M294.687 233.163H283.185V251.173H294.687V233.163Z" fill="#263238"/>
<path d="M294.687 255.888H283.185V273.897H294.687V255.888Z" fill="#263238"/>
<path d="M294.687 278.598H283.185V296.608H294.687V278.598Z" fill="#263238"/>
<path d="M294.687 301.322H283.185V319.332H294.687V301.322Z" fill="#EBEBEB"/>
<path d="M294.687 324.046H283.185V342.055H294.687V324.046Z" fill="#263238"/>
<path d="M294.687 346.757H283.185V364.767H294.687V346.757Z" fill="#263238"/>
<path d="M294.687 369.481H283.185V387.49H294.687V369.481Z" fill="#263238"/>
<path d="M313.742 142.281H302.24V160.29H313.742V142.281Z" fill="#263238"/>
<path d="M313.742 165.005H302.24V183.015H313.742V165.005Z" fill="#263238"/>
<path d="M313.742 187.729H302.24V205.738H313.742V187.729Z" fill="#263238"/>
<path d="M313.742 210.44H302.24V228.449H313.742V210.44Z" fill="#263238"/>
<path d="M313.742 233.163H302.24V251.173H313.742V233.163Z" fill="#263238"/>
<path d="M313.742 255.888H302.24V273.897H313.742V255.888Z" fill="#263238"/>
<path d="M313.742 278.598H302.24V296.608H313.742V278.598Z" fill="#263238"/>
<path d="M313.742 301.322H302.24V319.332H313.742V301.322Z" fill="#263238"/>
<path d="M313.742 324.046H302.24V342.055H313.742V324.046Z" fill="#263238"/>
<path d="M313.742 346.757H302.24V364.767H313.742V346.757Z" fill="#263238"/>
<path d="M313.742 369.481H302.24V387.49H313.742V369.481Z" fill="#263238"/>
<path d="M313.742 142.281H302.24V160.29H313.742V142.281Z" fill="#263238"/>
<path d="M313.742 165.005H302.24V183.015H313.742V165.005Z" fill="#263238"/>
<path d="M313.742 187.729H302.24V205.738H313.742V187.729Z" fill="#263238"/>
<path d="M313.742 210.44H302.24V228.449H313.742V210.44Z" fill="#263238"/>
<path d="M313.742 233.163H302.24V251.173H313.742V233.163Z" fill="#EBEBEB"/>
<path d="M313.742 255.888H302.24V273.897H313.742V255.888Z" fill="#263238"/>
<path d="M313.742 278.598H302.24V296.608H313.742V278.598Z" fill="#263238"/>
<path d="M313.742 301.322H302.24V319.332H313.742V301.322Z" fill="#263238"/>
<path d="M313.742 324.046H302.24V342.055H313.742V324.046Z" fill="#263238"/>
<path d="M313.742 346.757H302.24V364.767H313.742V346.757Z" fill="#263238"/>
<path d="M313.742 369.481H302.24V387.49H313.742V369.481Z" fill="#263238"/>
<path d="M322.878 388.644C322.103 300.115 322.097 200.799 322.878 112.27C323.659 200.799 323.651 300.115 322.878 388.644Z" fill="#37474F"/>
<path d="M375.757 234.386H307.824V388.644H375.757V234.386Z" fill="#455A64"/>
<path d="M375.509 213.332H324.669V234.385H375.509V213.332Z" fill="#455A64"/>
<path d="M333.248 216.581H328.901V231.138H333.248V216.581Z" fill="#263238"/>
<path d="M340.854 216.581H336.507V231.138H340.854V216.581Z" fill="#263238"/>
<path d="M348.46 216.581H344.113V231.138H348.46V216.581Z" fill="#263238"/>
<path d="M356.063 216.581H351.718V231.138H356.063V216.581Z" fill="#263238"/>
<path d="M363.671 216.581H359.324V231.138H363.671V216.581Z" fill="#263238"/>
<path d="M371.275 216.581H366.929V231.138H371.275V216.581Z" fill="#263238"/>
<path d="M398.626 213.332H375.509V234.385H398.626V213.332Z" fill="#455A64"/>
<path d="M382.446 216.581H378.749V231.138H382.446V216.581Z" fill="#263238"/>
<path d="M388.916 216.581H385.219V231.138H388.916V216.581Z" fill="#263238"/>
<path d="M395.385 216.581H391.688V231.138H395.385V216.581Z" fill="#263238"/>
<path d="M410.348 234.386H375.759V388.644H410.348V234.386Z" fill="#455A64"/>
<path d="M335.867 202.665H334.311V213.332H335.867V202.665Z" fill="#455A64"/>
<path d="M365.866 202.665H364.31V213.332H365.866V202.665Z" fill="#455A64"/>
<path d="M372.756 184.013H327.421V202.665H372.756V184.013Z" fill="#455A64"/>
<path d="M334.268 248.799H321.728V268.063H334.268V248.799Z" fill="#EBEBEB"/>
<path d="M359.796 248.799H347.255V268.063H359.796V248.799Z" fill="#263238"/>
<path d="M334.268 279.157H321.728V298.422H334.268V279.157Z" fill="#263238"/>
<path d="M359.796 279.157H347.255V298.422H359.796V279.157Z" fill="#263238"/>
<path d="M334.268 309.514H321.728V328.779H334.268V309.514Z" fill="#263238"/>
<path d="M359.796 309.514H347.255V328.779H359.796V309.514Z" fill="#263238"/>
<path d="M334.268 339.871H321.728V359.136H334.268V339.871Z" fill="#263238"/>
<path d="M359.796 339.871H347.255V359.136H359.796V339.871Z" fill="#EBEBEB"/>
<path d="M334.266 370.229H321.724V388.645H334.266V370.229Z" fill="#263238"/>
<path d="M359.796 370.229H347.254V388.645H359.796V370.229Z" fill="#263238"/>
<path d="M389.068 248.799H381.861V268.063H389.068V248.799Z" fill="#263238"/>
<path d="M403.737 248.799H396.53V268.063H403.737V248.799Z" fill="#263238"/>
<path d="M389.068 279.157H381.861V298.422H389.068V279.157Z" fill="#263238"/>
<path d="M403.737 279.157H396.53V298.422H403.737V279.157Z" fill="#EBEBEB"/>
<path d="M389.068 309.514H381.861V328.779H389.068V309.514Z" fill="#263238"/>
<path d="M403.737 309.514H396.53V328.779H403.737V309.514Z" fill="#263238"/>
<path d="M389.068 339.871H381.861V359.136H389.068V339.871Z" fill="#EBEBEB"/>
<path d="M403.737 339.871H396.53V359.136H403.737V339.871Z" fill="#263238"/>
<path d="M389.067 370.229H381.863V388.645H389.067V370.229Z" fill="#263238"/>
<path d="M403.734 370.229H396.53V388.645H403.734V370.229Z" fill="#263238"/>
<path d="M375.759 388.644C374.968 339.082 374.987 283.983 375.759 234.386C376.53 283.994 376.549 339.071 375.759 388.644Z" fill="#37474F"/>
<path d="M287.173 257.525H254.473V388.645H287.173V257.525Z" fill="#455A64"/>
<path d="M262.041 269.25H257.605V286.696H262.041V269.25Z" fill="#263238"/>
<path d="M262.041 293.016H257.605V310.462H262.041V293.016Z" fill="#263238"/>
<path d="M262.041 316.783H257.605V334.228H262.041V316.783Z" fill="#263238"/>
<path d="M262.041 340.549H257.605V357.995H262.041V340.549Z" fill="#263238"/>
<path d="M262.041 364.317H257.605V381.762H262.041V364.317Z" fill="#263238"/>
<path d="M262.043 388.082H257.607V388.645H262.043V388.082Z" fill="#263238"/>
<path d="M269.373 269.25H264.937V286.696H269.373V269.25Z" fill="#263238"/>
<path d="M269.373 293.016H264.937V310.462H269.373V293.016Z" fill="#263238"/>
<path d="M269.373 316.783H264.937V334.228H269.373V316.783Z" fill="#EBEBEB"/>
<path d="M269.373 340.549H264.937V357.995H269.373V340.549Z" fill="#263238"/>
<path d="M269.373 364.317H264.937V381.762H269.373V364.317Z" fill="#263238"/>
<path d="M269.37 388.082H264.935V388.645H269.37V388.082Z" fill="#263238"/>
<path d="M276.705 269.25H272.269V286.696H276.705V269.25Z" fill="#263238"/>
<path d="M276.705 293.016H272.269V310.462H276.705V293.016Z" fill="#263238"/>
<path d="M276.705 316.783H272.269V334.228H276.705V316.783Z" fill="#263238"/>
<path d="M276.705 340.549H272.269V357.995H276.705V340.549Z" fill="#263238"/>
<path d="M276.705 364.317H272.269V381.762H276.705V364.317Z" fill="#263238"/>
<path d="M276.705 388.082H272.269V388.645H276.705V388.082Z" fill="#263238"/>
<path d="M284.037 269.25H279.601V286.696H284.037V269.25Z" fill="#263238"/>
<path d="M284.037 293.016H279.601V310.462H284.037V293.016Z" fill="#263238"/>
<path d="M284.037 316.783H279.601V334.228H284.037V316.783Z" fill="#263238"/>
<path d="M284.037 340.549H279.601V357.995H284.037V340.549Z" fill="#263238"/>
<path d="M284.037 364.317H279.601V381.762H284.037V364.317Z" fill="#263238"/>
<path d="M284.04 388.082H279.604V388.645H284.04V388.082Z" fill="#263238"/>
<path d="M254.473 257.525H187.437V388.645H254.473V257.525Z" fill="#455A64"/>
<path d="M282.484 249.042H190.648V257.527H282.484V249.042Z" fill="#455A64"/>
<path d="M202.944 269.25H193.846V286.696H202.944V269.25Z" fill="#263238"/>
<path d="M202.944 293.016H193.846V310.462H202.944V293.016Z" fill="#263238"/>
<path d="M202.944 316.783H193.846V334.228H202.944V316.783Z" fill="#263238"/>
<path d="M202.944 340.549H193.846V357.995H202.944V340.549Z" fill="#263238"/>
<path d="M202.944 364.317H193.846V381.762H202.944V364.317Z" fill="#263238"/>
<path d="M202.948 388.082H193.849V388.645H202.948V388.082Z" fill="#263238"/>
<path d="M217.984 269.25H208.885V286.696H217.984V269.25Z" fill="#263238"/>
<path d="M217.984 293.016H208.885V310.462H217.984V293.016Z" fill="#263238"/>
<path d="M217.984 316.783H208.885V334.228H217.984V316.783Z" fill="#263238"/>
<path d="M217.984 340.549H208.885V357.995H217.984V340.549Z" fill="#263238"/>
<path d="M217.984 364.317H208.885V381.762H217.984V364.317Z" fill="#263238"/>
<path d="M217.98 388.082H208.881V388.645H217.98V388.082Z" fill="#EBEBEB"/>
<path d="M233.023 269.25H223.924V286.696H233.023V269.25Z" fill="#263238"/>
<path d="M233.023 293.016H223.924V310.462H233.023V293.016Z" fill="#EBEBEB"/>
<path d="M233.023 316.783H223.924V334.228H233.023V316.783Z" fill="#263238"/>
<path d="M233.023 340.549H223.924V357.995H233.023V340.549Z" fill="#263238"/>
<path d="M233.023 364.317H223.924V381.762H233.023V364.317Z" fill="#263238"/>
<path d="M233.022 388.082H223.923V388.645H233.022V388.082Z" fill="#263238"/>
<path d="M248.061 269.25H238.962V286.696H248.061V269.25Z" fill="#263238"/>
<path d="M248.061 293.016H238.962V310.462H248.061V293.016Z" fill="#263238"/>
<path d="M248.061 316.783H238.962V334.228H248.061V316.783Z" fill="#263238"/>
<path d="M248.061 340.549H238.962V357.995H248.061V340.549Z" fill="#263238"/>
<path d="M248.061 364.317H238.962V381.762H248.061V364.317Z" fill="#EBEBEB"/>
<path d="M248.062 388.082H238.963V388.645H248.062V388.082Z" fill="#263238"/>
<path d="M254.473 388.644C253.682 346.517 253.701 299.68 254.473 257.524C255.244 299.689 255.265 346.508 254.473 388.644Z" fill="#37474F"/>
<path d="M287.173 257.527C255.071 258.313 219.548 258.313 187.437 257.527C219.55 256.742 255.067 256.742 287.173 257.527Z" fill="#37474F"/>
<path d="M187.437 257.525C188.228 299.652 188.209 346.488 187.437 388.645C186.666 346.48 186.647 299.661 187.437 257.525Z" fill="#37474F"/>
<path d="M190.648 257.527C189.832 254.709 189.826 251.859 190.648 249.042C191.469 251.861 191.463 254.71 190.648 257.527Z" fill="#37474F"/>
<path d="M66.1337 218.119L428.517 218.119V209.831L66.1337 209.831V218.119Z" fill="#C7C7C7"/>
<path d="M28.798 420.724L465.852 420.724V396.935L28.798 396.935V420.724Z" fill="#C7C7C7"/>
<path d="M66.1337 39.3038H428.517V388.646H66.1337V39.3038ZM420.865 46.9805H73.786V380.971H420.866L420.865 46.9805Z" fill="#C7C7C7"/>
<path d="M310.663 39.3038H306.532V380.971H310.663V39.3038Z" fill="#C7C7C7"/>
<path d="M188.118 39.3038H183.987V380.971H188.118V39.3038Z" fill="#C7C7C7"/>
<path d="M410.01 368.124C407.115 368.23 383.709 370.365 376.686 374.314C369.665 378.263 357.323 394.7 355.833 396.3C354.343 397.902 344.874 402.277 343.172 402.704C341.469 403.13 336.575 403.984 335.192 405.906C333.809 407.827 332.639 411.144 333.809 411.46C334.979 411.777 342.746 412.105 344.448 411.46C346.15 410.815 350.725 410.069 351.577 409.749C352.428 409.429 361.365 403.771 361.365 403.771L380.453 392.778C380.453 392.778 360.849 397.148 352.03 399.227C352.03 399.227 346.886 399.048 344.897 399.538C342.486 400.13 339.152 402.101 339.258 404.075C339.363 406.049 349.55 407.154 350.827 405.766C351.489 405.047 362.152 400.727 370.699 398.782C378.642 396.975 384.519 397.518 384.878 397.262C385.623 396.728 399.773 397.689 407.859 394.807L410.01 368.124Z" fill="#E08F30"/>
<path opacity="0.1" d="M410.01 368.124C407.115 368.23 383.709 370.365 376.686 374.314C369.665 378.263 357.323 394.7 355.833 396.3C354.343 397.902 344.874 402.277 343.172 402.704C341.469 403.13 336.575 403.984 335.192 405.906C333.809 407.827 332.639 411.144 333.809 411.46C334.979 411.777 342.746 412.105 344.448 411.46C346.15 410.815 350.725 410.069 351.577 409.749C352.428 409.429 361.365 403.771 361.365 403.771L380.453 392.778C380.453 392.778 360.849 397.148 352.03 399.227C352.03 399.227 346.886 399.048 344.897 399.538C342.486 400.13 339.152 402.101 339.258 404.075C339.363 406.049 349.55 407.154 350.827 405.766C351.489 405.047 362.152 400.727 370.699 398.782C378.642 396.975 384.519 397.518 384.878 397.262C385.623 396.728 399.773 397.689 407.859 394.807L410.01 368.124Z" fill="black"/>
<path d="M337.296 407.158C336.935 407.387 336.54 407.555 336.255 407.881C335.962 408.217 335.728 408.612 335.58 409.024C335.415 409.487 335.324 409.983 335.334 410.474C335.341 410.867 335.353 411.349 335.631 411.663C335.69 411.729 335.811 411.654 335.781 411.576C335.637 411.202 336.075 409.565 336.203 409.173C336.315 408.828 336.44 408.5 336.625 408.183C336.818 407.854 337.011 407.459 337.352 407.246C337.409 407.209 337.353 407.121 337.296 407.158Z" fill="#263238"/>
<path d="M340.567 407.686C340.137 407.907 339.734 408.105 339.38 408.445C339.031 408.778 338.762 409.182 338.58 409.628C338.235 410.473 338.143 411.639 338.825 412.349C338.859 412.383 338.929 412.345 338.909 412.297C338.734 411.891 338.754 411.4 338.821 410.969C338.883 410.567 338.973 410.156 339.124 409.776C339.272 409.406 339.468 409.044 339.697 408.717C339.942 408.366 340.25 407.992 340.624 407.776C340.683 407.744 340.628 407.655 340.567 407.686Z" fill="#263238"/>
<path d="M351.248 399.034C350.133 399.512 349.049 400.004 347.969 400.564C346.897 401.119 345.839 401.732 344.714 402.176C343.759 402.553 342.737 402.672 341.735 402.859C341.274 402.945 340.809 403.051 340.37 403.219C339.906 403.394 339.54 403.657 339.13 403.922C339.073 403.959 339.13 404.052 339.186 404.013C340.018 403.437 341.233 403.327 342.203 403.197C343.179 403.066 344.153 402.943 345.087 402.611C346.142 402.236 347.125 401.643 348.109 401.114C348.658 400.819 349.214 400.534 349.753 400.219C350.294 399.902 350.8 399.547 351.328 399.212C351.419 399.156 351.354 398.988 351.248 399.034Z" fill="#263238"/>
<path d="M389.378 387.731C389.421 387.705 389.381 387.648 389.339 387.668C384.027 390.078 378.96 393.014 374.021 396.114C372.621 396.993 371.253 397.912 369.902 398.864C369.834 398.912 369.897 399.015 369.969 398.974C372.514 397.548 375.017 396.057 377.542 394.597C379.325 393.565 381.118 392.549 382.906 391.525C383.381 391.383 383.858 391.242 384.321 391.063C385.158 390.74 386.005 390.42 386.79 389.979C386.871 389.934 386.81 389.811 386.724 389.833C385.946 390.045 385.194 390.348 384.443 390.642C384.671 390.51 384.899 390.381 385.127 390.249C386.548 389.416 387.968 388.585 389.378 387.731Z" fill="#263238"/>
<path d="M398.779 348.649C397.337 348.429 395.885 348.304 394.433 348.171C392.978 348.068 391.522 347.987 390.065 347.935C387.149 347.831 384.23 347.864 381.315 347.975C378.402 348.127 375.488 348.334 372.594 348.709C371.146 348.882 369.705 349.106 368.266 349.339C366.828 349.579 365.4 349.885 363.975 350.18C366.866 349.806 369.747 349.406 372.644 349.158C374.091 349.018 375.54 348.904 376.988 348.791C378.438 348.705 379.888 348.604 381.341 348.562C384.243 348.402 387.15 348.377 390.056 348.384C392.963 348.396 395.872 348.473 398.779 348.649Z" fill="#263238"/>
<path d="M397.623 350.364C394.996 350.287 392.366 350.375 389.742 350.526C387.117 350.676 384.5 350.948 381.888 351.252C379.281 351.596 376.68 351.993 374.1 352.51C371.518 353.006 368.963 353.647 366.44 354.377C367.736 354.15 369.011 353.842 370.307 353.636L372.241 353.274L374.181 352.955L378.065 352.346C379.363 352.17 380.66 351.983 381.961 351.836C384.557 351.485 387.166 351.221 389.775 350.976C391.08 350.851 392.387 350.741 393.694 350.645C395.003 350.53 396.312 350.449 397.623 350.364Z" fill="#263238"/>
<path d="M398.398 352.002C396.212 352.161 394.041 352.479 391.88 352.843C389.718 353.206 387.572 353.653 385.437 354.154C383.307 354.673 381.182 355.217 379.09 355.871C378.04 356.185 376.999 356.531 375.959 356.871C374.924 357.232 373.893 357.605 372.869 357.995C374.991 357.442 377.093 356.845 379.211 356.307C381.327 355.758 383.446 355.231 385.571 354.727C387.693 354.212 389.828 353.752 391.962 353.285C393.029 353.05 394.1 352.836 395.173 352.625C396.246 352.401 397.321 352.204 398.398 352.002Z" fill="#263238"/>
<path d="M409.433 326.455C409.433 326.455 400.705 317.926 393.031 316.613C392.385 316.502 396.083 335.918 396.478 336.858C396.873 337.797 409.433 326.455 409.433 326.455Z" fill="#E08F30"/>
<path opacity="0.1" d="M409.433 326.455C409.433 326.455 400.705 317.926 393.031 316.613C392.385 316.502 396.083 335.918 396.478 336.858C396.873 337.797 409.433 326.455 409.433 326.455Z" fill="black"/>
<path opacity="0.1" d="M407.096 328.057C407.096 328.057 400.452 321.565 394.61 320.564C394.118 320.48 396.933 335.26 397.234 335.977C397.535 336.693 407.096 328.057 407.096 328.057Z" fill="black"/>
<path d="M455.846 396.509C452.756 400.356 404.986 398.003 403.813 398.334C402.641 398.653 382.224 408.894 381.26 409.53C380.308 410.18 375.3 410.707 372.968 410.707C370.623 410.707 364.982 410.18 363.919 409.53C362.857 408.894 365.727 405.378 367.217 404.092C368.706 402.805 374.129 403.026 375.521 402.279C376.9 401.531 385.204 396.84 386.266 395.014C387.328 393.201 400.878 368.76 400.878 368.123C400.878 368.123 388.65 357.2 389.273 353.059C389.884 348.931 399.155 328.984 403.148 327.637C410.023 325.334 422.766 325.748 422.766 325.748C422.766 325.748 423.254 311.182 424.94 311.966C433.768 316.033 443.709 331.774 446.443 338.561C446.785 339.418 447.017 340.129 447.115 340.656C447.786 344.318 445.044 366.414 445.044 366.414C444.934 366.943 458.935 392.676 455.846 396.509Z" fill="#E08F30"/>
<path opacity="0.1" d="M455.846 396.509C452.756 400.356 404.986 398.003 403.813 398.334C402.641 398.653 382.224 408.894 381.26 409.53C380.308 410.18 375.3 410.707 372.968 410.707C370.623 410.707 364.982 410.18 363.919 409.53C362.857 408.894 365.727 405.378 367.217 404.092C368.706 402.805 374.129 403.026 375.521 402.279C376.9 401.531 385.204 396.84 386.266 395.014C387.328 393.201 400.878 368.76 400.878 368.123C400.878 368.123 388.65 357.2 389.273 353.059C389.884 348.931 399.155 328.984 403.148 327.637C410.023 325.334 422.766 325.748 422.766 325.748C422.766 325.748 423.254 311.182 424.94 311.966C433.768 316.033 443.709 331.774 446.443 338.561C446.785 339.418 447.017 340.129 447.115 340.656C447.786 344.318 445.044 366.414 445.044 366.414C444.934 366.943 458.935 392.676 455.846 396.509Z" fill="black"/>
<path opacity="0.1" d="M411.097 367.497C411.121 367.445 411.046 367.4 411.019 367.453C410.087 369.346 409.338 371.342 409.029 373.439C408.868 374.526 408.74 375.67 408.856 376.767C408.916 377.324 409.024 377.87 409.247 378.386C409.396 378.73 409.644 379.092 410.059 379.099C410.59 379.109 410.73 378.513 410.881 378.117C410.953 377.931 411.018 377.74 411.085 377.55C411.059 378.577 411.244 379.609 411.615 380.574C412.154 381.982 413.146 383.385 414.486 384.126C414.579 384.177 414.674 384.053 414.598 383.978C413.534 382.923 412.652 381.799 412.113 380.382C411.59 378.999 411.442 377.492 411.662 376.031C411.697 375.802 411.385 375.709 411.31 375.937C411.099 376.577 410.786 377.2 410.505 377.812C410.447 377.938 410.39 378.065 410.33 378.19C410.274 378.309 410.233 378.538 410.069 378.476C409.868 378.398 409.788 377.904 409.741 377.738C409.419 376.597 409.444 375.355 409.517 374.181C409.658 371.894 410.133 369.583 411.097 367.497Z" fill="black"/>
<path d="M422.029 339.197C426.359 338.898 428.766 342.082 429.034 345.976C429.25 349.13 426.902 352.529 422.746 352.817C418.59 353.105 415.76 349.497 415.555 346.535C415.353 343.573 417.328 339.522 422.029 339.197Z" fill="#263238"/>
<path d="M421.668 340.043C425.738 339.761 428.002 342.754 428.253 346.414C428.456 349.38 426.249 352.574 422.342 352.844C418.435 353.114 415.775 349.724 415.584 346.939C415.393 344.156 417.249 340.349 421.668 340.043Z" fill="white"/>
<path d="M421.064 340.671C424.25 340.45 426.021 342.793 426.218 345.658C426.378 347.98 424.649 350.481 421.592 350.692C418.534 350.904 416.452 348.249 416.302 346.069C416.15 343.891 417.604 340.911 421.064 340.671Z" fill="#263238"/>
<path d="M400.667 338.044C397.285 337.398 394.985 340.232 394.285 343.922C393.718 346.911 395.146 350.346 398.392 350.966C401.637 351.586 404.325 348.383 404.858 345.576C405.39 342.768 404.338 338.745 400.667 338.044Z" fill="#263238"/>
<path d="M400.846 338.88C397.667 338.273 395.505 340.936 394.847 344.404C394.313 347.213 395.656 350.443 398.708 351.026C401.759 351.608 404.285 348.596 404.785 345.959C405.285 343.321 404.297 339.538 400.846 338.88Z" fill="white"/>
<path d="M400.341 339.277C397.853 338.802 396.16 340.887 395.644 343.603C395.228 345.802 396.278 348.33 398.666 348.786C401.054 349.242 403.031 346.885 403.423 344.82C403.816 342.755 403.043 339.793 400.341 339.277Z" fill="#263238"/>
<path d="M405.868 347.426C405.923 347.781 408.261 349.073 408.528 349.069C408.79 349.067 411.102 347.727 411.154 347.372C411.206 347.021 409.055 346.911 408.506 346.916C407.954 346.922 405.809 347.076 405.868 347.426Z" fill="#263238"/>
<path d="M414.752 350.309C414.288 350.848 413.793 351.354 413.261 351.793C412.736 352.215 412.116 352.621 411.557 352.572C410.957 352.523 410.442 352.146 410.035 351.656C409.636 351.164 409.292 350.556 409.075 349.96L408.456 348.255L408.224 350.049C408.154 350.59 408.011 351.157 407.831 351.663C407.644 352.161 407.362 352.647 407.003 352.663C406.815 352.674 406.578 352.58 406.362 352.425C406.146 352.269 405.943 352.069 405.75 351.857C405.371 351.424 405.03 350.938 404.713 350.432C404.886 351.005 405.125 351.56 405.449 352.082C405.61 352.344 405.799 352.595 406.036 352.819C406.274 353.034 406.577 353.26 406.988 353.286C407.405 353.322 407.804 353.086 408.038 352.828C408.281 352.563 408.444 352.27 408.58 351.979C408.852 351.387 408.988 350.794 409.097 350.163L408.246 350.252C408.538 350.974 408.893 351.625 409.429 352.197C409.696 352.478 410.002 352.737 410.363 352.924C410.724 353.108 411.141 353.21 411.549 353.194C411.987 353.189 412.369 353.002 412.682 352.795C413 352.584 413.272 352.333 413.518 352.064C414.009 351.532 414.416 350.937 414.752 350.309Z" fill="#263238"/>
<path d="M429.772 351.104C432.674 350.85 435.579 350.692 438.485 350.602C441.391 350.514 444.297 350.459 447.203 350.541C448.656 350.542 450.108 350.605 451.56 350.65C453.011 350.723 454.462 350.797 455.912 350.898C458.816 351.065 461.706 351.387 464.606 351.681C463.173 351.424 461.738 351.158 460.294 350.959C458.849 350.765 457.403 350.58 455.95 350.447C453.047 350.151 450.13 350.026 447.213 349.954C444.296 349.923 441.377 349.969 438.466 350.152C437.01 350.246 435.556 350.367 434.106 350.51C432.655 350.68 431.206 350.845 429.772 351.104Z" fill="#263238"/>
<path d="M430.974 352.787C432.287 352.836 433.598 352.881 434.907 352.959C436.217 353.02 437.527 353.094 438.835 353.183C441.45 353.357 444.065 353.548 446.671 353.828C447.977 353.939 449.278 354.09 450.58 354.231L454.478 354.734L456.427 354.999L458.368 355.307C459.671 355.478 460.953 355.75 462.255 355.941C459.712 355.281 457.142 354.71 454.547 354.286C451.955 353.84 449.343 353.516 446.728 353.243C444.109 353.012 441.486 352.81 438.857 352.733C436.229 352.653 433.598 352.639 430.974 352.787Z" fill="#263238"/>
<path d="M430.244 354.446C431.327 354.618 432.406 354.786 433.483 354.981C434.56 355.161 435.637 355.346 436.71 355.553C438.856 355.961 441.003 356.363 443.138 356.819C445.277 357.264 447.41 357.732 449.538 358.223C451.671 358.703 453.788 359.242 455.924 359.736C454.891 359.373 453.85 359.031 452.805 358.697C451.755 358.386 450.705 358.069 449.648 357.784C447.538 357.188 445.399 356.703 443.256 356.243C441.11 355.8 438.952 355.412 436.78 355.109C434.613 354.803 432.434 354.545 430.244 354.446Z" fill="#263238"/>
<path opacity="0.1" d="M435.368 330.445C435.368 330.445 431.772 319.262 426.09 316.024C425.666 315.783 424.9 326.598 425.18 326.649C429.994 327.532 435.368 330.445 435.368 330.445Z" fill="black"/>
<path d="M367.347 405.774C366.986 406.002 366.591 406.171 366.306 406.497C366.013 406.832 365.779 407.228 365.631 407.64C365.467 408.103 365.375 408.599 365.385 409.09C365.392 409.482 365.404 409.965 365.683 410.279C365.741 410.345 365.862 410.269 365.832 410.191C365.688 409.817 366.127 408.18 366.254 407.788C366.366 407.443 366.491 407.114 366.677 406.798C366.869 406.468 367.062 406.074 367.403 405.86C367.46 405.826 367.404 405.738 367.347 405.774Z" fill="#263238"/>
<path d="M370.618 406.303C370.188 406.524 369.785 406.723 369.431 407.062C369.082 407.395 368.813 407.799 368.631 408.245C368.286 409.09 368.194 410.256 368.877 410.966C368.91 411 368.98 410.962 368.96 410.914C368.785 410.508 368.805 410.018 368.872 409.586C368.934 409.184 369.024 408.773 369.175 408.393C369.323 408.022 369.519 407.661 369.748 407.334C369.993 406.983 370.302 406.609 370.675 406.393C370.735 406.359 370.679 406.272 370.618 406.303Z" fill="#263238"/>
<path d="M410.194 385.848C409.31 388.242 408.471 390.664 407.482 393.02C407.081 393.976 406.635 394.982 405.967 395.784C405.613 396.209 405.191 396.576 404.773 396.936C404.252 397.386 403.727 397.872 403.171 398.278C403.116 398.318 403.169 398.409 403.227 398.369C404.238 397.658 405.419 397.183 406.366 396.375C407.232 395.635 407.715 394.613 408.046 393.541C408.83 390.998 409.528 388.424 410.293 385.873C410.312 385.809 410.217 385.787 410.194 385.848Z" fill="#263238"/>
<path d="M383.586 397.355C384.523 396.377 385.628 395.607 386.206 394.328L386.833 393.089C389.384 388.159 392.133 383.344 395.252 378.789C392.963 383.867 390.283 388.724 387.411 393.453L386.681 394.627C386.013 395.871 384.691 396.607 383.586 397.355Z" fill="#263238"/>
<path d="M400.469 369.037C400.055 370.717 399.272 372.215 398.119 373.504C398.53 371.822 399.321 370.327 400.469 369.037Z" fill="#263238"/>
<path d="M436.098 379.22C432.591 380.735 425.033 385.09 422.373 387.225C419.714 389.359 410.394 400.566 409.096 401.42C407.797 402.274 402.69 402.594 401.2 403.768C399.711 404.942 397.05 407.931 397.69 408.571C398.328 409.211 410.988 409.105 413.01 408.571C415.031 408.037 415.892 406.97 416.844 406.863C417.798 406.757 429.927 402.274 432.373 401.954C434.821 401.634 452.221 398.2 454.18 396.492C456.138 394.785 452.693 386.277 450.187 380.391C448.838 377.223 440.489 377.322 436.098 379.22Z" fill="#E08F30"/>
<path opacity="0.1" d="M436.098 379.22C432.591 380.735 425.033 385.09 422.373 387.225C419.714 389.359 410.394 400.566 409.096 401.42C407.797 402.274 402.69 402.594 401.2 403.768C399.711 404.942 397.05 407.931 397.69 408.571C398.328 409.211 410.988 409.105 413.01 408.571C415.031 408.037 415.892 406.97 416.844 406.863C417.798 406.757 429.927 402.274 432.373 401.954C434.821 401.634 452.221 398.2 454.18 396.492C456.138 394.785 452.693 386.277 450.187 380.391C448.838 377.223 440.489 377.322 436.098 379.22Z" fill="black"/>
<path d="M401.828 404.482C401.467 404.709 401.072 404.879 400.787 405.205C400.494 405.54 400.26 405.936 400.112 406.348C399.947 406.81 399.856 407.307 399.866 407.797C399.873 408.19 399.885 408.673 400.163 408.987C400.222 409.053 400.343 408.977 400.313 408.898C400.169 408.525 400.608 406.887 400.735 406.496C400.847 406.15 400.972 405.822 401.158 405.506C401.35 405.176 401.543 404.782 401.884 404.568C401.941 404.532 401.886 404.445 401.828 404.482Z" fill="#263238"/>
<path d="M405.25 404.48C404.821 404.701 404.417 404.899 404.063 405.238C403.715 405.571 403.446 405.975 403.263 406.422C402.918 407.266 402.827 408.433 403.509 409.142C403.542 409.177 403.612 409.139 403.592 409.091C403.417 408.685 403.437 408.194 403.504 407.763C403.566 407.36 403.656 406.949 403.808 406.57C403.955 406.198 404.152 405.838 404.38 405.51C404.625 405.159 404.934 404.785 405.308 404.569C405.367 404.536 405.311 404.449 405.25 404.48Z" fill="#263238"/>
<path d="M446.5 377.519C443.91 377.436 441.259 377.488 438.737 378.157C437.496 378.486 436.35 379.014 435.217 379.61C433.958 380.273 432.703 380.947 431.453 381.627C429.004 382.961 426.523 384.304 424.179 385.818C421.912 387.282 420.129 389.283 418.285 391.228C416.067 393.566 413.906 395.997 411.852 398.482C411.807 398.535 411.878 398.603 411.929 398.556C413.998 396.621 415.975 394.584 417.952 392.555C419.799 390.656 421.473 388.479 423.671 386.968C424.783 386.204 425.975 385.558 427.146 384.889C428.315 384.223 429.487 383.562 430.665 382.911C431.891 382.232 433.113 381.549 434.343 380.875C435.478 380.254 436.61 379.603 437.794 379.081C440.544 377.87 443.546 377.727 446.504 377.634C446.575 377.63 446.572 377.522 446.5 377.519Z" fill="#263238"/>
<path d="M373.242 376.827C372.594 377.392 357.855 376.827 343.705 384.133C332.998 389.661 323.278 399.716 326.15 406.973C329.023 414.231 344.556 414.087 350.408 414.905C356.259 415.725 369.878 420.528 373.921 411.989C377.963 403.45 359.554 397.05 345.3 399.502C341.577 400.142 345.359 395.831 348.386 393.098C352.642 389.256 360.941 386.694 367.537 385.733L373.242 376.827Z" fill="#E08F30"/>
<path opacity="0.1" d="M373.242 376.827C372.594 377.392 357.855 376.827 343.705 384.133C332.998 389.661 323.278 399.716 326.15 406.973C329.023 414.231 344.556 414.087 350.408 414.905C356.259 415.725 369.878 420.528 373.921 411.989C377.963 403.45 359.554 397.05 345.3 399.502C341.577 400.142 345.359 395.831 348.386 393.098C352.642 389.256 360.941 386.694 367.537 385.733L373.242 376.827Z" fill="black"/>
<path d="M373.974 406.112C373.06 404.514 371.54 403.338 369.94 402.488C368.192 401.561 366.258 400.92 364.354 400.405C362.275 399.844 360.159 399.433 358.019 399.193C356.879 399.065 355.731 398.969 354.583 398.944C353.343 398.917 352.116 398.988 350.879 399.022C350.81 399.024 350.812 399.131 350.881 399.129C352.889 399.074 354.952 399.294 356.94 399.557C358.908 399.816 360.864 400.202 362.783 400.711C364.642 401.204 366.512 401.773 368.283 402.534C369.893 403.226 371.474 404.114 372.636 405.458C373.278 406.198 373.76 407.07 374.103 407.986C374.461 408.945 374.505 409.897 374.39 410.904C374.383 410.963 374.469 411.015 374.498 410.947C375.149 409.412 374.778 407.516 373.974 406.112Z" fill="#263238"/>
<path opacity="0.1" d="M373.238 376.826C370.298 379.351 366.981 382.939 364.035 386.361C362.906 386.609 361.758 386.889 360.616 387.212C360.978 384.694 361.525 380.956 361.956 378.212C368.329 377.108 372.89 377.135 373.238 376.826Z" fill="black"/>
<path d="M357.94 498.938C354.347 499.02 261.155 470.121 258.302 466.773C257.992 466.401 259.448 452.56 261.854 441.568C261.966 441.042 228.76 397.395 228.76 397.395L288.797 373.969L317.517 433.669L324.99 449.192C324.99 449.192 356.077 480.545 358.83 484.56C361.55 488.58 361.533 498.855 357.94 498.938Z" fill="#EBEBEB"/>
<path d="M360.563 499.463C356.817 499.564 259.53 469.772 256.535 466.283C255.392 464.966 257.131 458.929 261.854 441.568L325.637 449.273C325.637 449.273 358.556 480.283 361.431 484.462C364.285 488.637 364.309 499.364 360.563 499.463Z" fill="#97A97C"/>
<path d="M360.356 495.133C344.171 489.737 278.378 469.508 261.969 465.408C261.836 465.374 261.809 465.464 261.938 465.51C277.865 471.211 343.818 490.905 360.275 495.402C360.622 495.496 360.698 495.246 360.356 495.133Z" fill="#263238"/>
<path d="M356.241 479.037C352.422 477.694 348.081 478.38 345.269 480.045C342.568 481.645 339.885 484.235 338.967 487.664C338.941 487.762 339.119 487.819 339.165 487.724C342.043 481.607 349.56 477.761 356.18 479.242C356.312 479.272 356.372 479.082 356.241 479.037Z" fill="#263238"/>
<path d="M332.223 455.728C325.723 453.638 317.452 453.632 311.766 457.745C311.546 457.904 311.774 458.216 311.999 458.175C318.829 456.931 325.13 456.374 332.09 456.568C332.581 456.583 332.688 455.879 332.223 455.728Z" fill="#263238"/>
<path d="M336.662 459.243C330.162 457.153 321.892 457.147 316.205 461.26C315.985 461.419 316.215 461.732 316.438 461.69C323.267 460.445 329.569 459.889 336.529 460.082C337.021 460.097 337.128 459.392 336.662 459.243Z" fill="#263238"/>
<path d="M341.102 462.756C334.602 460.666 326.33 460.66 320.644 464.773C320.424 464.932 320.653 465.245 320.878 465.203C327.706 463.959 334.008 463.402 340.968 463.596C341.46 463.61 341.567 462.906 341.102 462.756Z" fill="#263238"/>
<path d="M345.541 466.27C339.041 464.18 330.769 464.174 325.084 468.287C324.863 468.447 325.092 468.759 325.317 468.717C332.147 467.473 338.448 466.916 345.409 467.109C345.899 467.124 346.006 466.419 345.541 466.27Z" fill="#263238"/>
<path d="M344.594 440.415C342.127 436.656 337.147 438.066 334.241 440.297C329.535 443.908 325.297 449.692 323.213 455.225C323.163 455.361 323.252 455.45 323.361 455.475C323.358 455.987 323.79 456.55 324.374 456.363C330.003 454.561 336.243 453.336 341.153 449.855C344.019 447.822 346.928 443.972 344.594 440.415ZM332.35 451.88C329.604 452.833 326.827 453.647 324.116 454.701C326.274 451.795 328.297 448.811 330.747 446.125C331.916 444.844 333.141 443.549 334.475 442.438C336.552 440.709 344.624 437.198 343.106 444.522C342.268 448.559 335.624 450.743 332.35 451.88Z" fill="#263238"/>
<path d="M306.259 452.686C311.675 455.303 318.032 455.474 323.881 456.316C324.488 456.403 324.821 455.776 324.734 455.272C324.837 455.229 324.91 455.127 324.837 455.002C321.871 449.892 316.735 444.891 311.497 442.112C308.262 440.396 303.118 439.832 301.306 443.95C299.591 447.846 303.096 451.159 306.259 452.686ZM303.452 447.753C300.744 440.783 309.285 442.904 311.618 444.263C313.117 445.137 314.54 446.21 315.904 447.279C318.763 449.52 321.25 452.127 323.86 454.634C321.012 454.044 318.14 453.704 315.273 453.22C311.856 452.645 304.943 451.595 303.452 447.753Z" fill="#263238"/>
<path d="M320.556 436.454L254.374 446.261C254.374 446.261 218.258 380.471 203.671 364.107L203.635 364.079C202.678 362.999 201.784 362.127 200.967 361.466L200.94 361.456C200.016 360.925 198.402 360.528 196.164 360.258L196.136 360.249C176.567 357.864 110.703 364.284 65.1897 361.338L86.4445 332.834L95.8635 320.192C147.137 314.324 210.06 293.295 238.454 307.583C269.291 323.102 320.556 436.454 320.556 436.454Z" fill="#263238"/>
<path d="M312.261 425.178C301.011 426.631 304.221 426.063 292.987 427.635C287.49 428.404 259.849 432.208 254.84 433.781C254.729 433.816 254.756 433.997 254.872 433.998C260.122 434.04 287.673 429.639 293.155 428.769C304.359 426.99 301.123 427.385 312.306 425.487C312.517 425.453 312.473 425.151 312.261 425.178Z" fill="#37474F"/>
<path d="M254.712 432.855C247.223 420.293 213.122 358.285 206.334 355.844C200.156 353.622 76.5456 356.2 74.7159 356.213C74.5849 356.215 74.5742 356.418 74.7063 356.415C89.3373 356.228 202.324 355.824 205.547 357.103C212.246 359.762 253.027 431.692 254.027 433.193C254.296 433.594 254.969 433.287 254.712 432.855Z" fill="#37474F"/>
<path d="M30.6171 335.403C30.6171 335.403 26.7087 372.796 45.6218 391.394C68.2564 413.653 217.625 408.029 240.773 400.524C263.922 393.018 264.646 355.546 239.34 346.862C215.273 338.604 108.54 333.857 106.012 332.845C103.485 331.834 96.0861 319.984 96.0861 319.984L30.6171 335.403Z" fill="#263238"/>
<path d="M62.2266 334.35C62.1969 334.171 61.9207 334.229 61.9207 334.399C61.9409 339.121 60.1969 344.089 57.1064 347.67C53.5612 351.775 48.335 354.074 43.5981 356.477C43.1421 356.709 43.4873 357.423 43.9588 357.281C46.8457 356.413 49.6909 355.149 52.3231 353.666C54.7195 352.315 56.9338 350.622 58.6135 348.42C61.7112 344.36 63.0647 339.41 62.2266 334.35Z" fill="#37474F"/>
<path d="M104.994 330.515C103.939 329.161 102.786 327.872 101.683 326.556C99.0754 323.443 96.4552 320.316 93.7218 317.314C93.4635 317.029 92.9564 317.432 93.1945 317.744C95.0349 320.157 96.9837 322.496 98.9004 324.85C99.8826 326.056 100.868 327.26 101.862 328.457C102.79 329.575 103.939 330.686 104.625 331.975C105.34 333.313 104.4 334.457 103.017 334.605C101.779 334.738 100.637 334.105 99.6873 333.375C97.5302 331.718 95.8326 329.344 94.0385 327.318C92.9409 326.078 91.8433 324.84 90.7278 323.616C89.5421 322.314 88.2778 321.079 87.0968 319.78C87.0207 319.696 86.8742 319.813 86.9409 319.906C87.9742 321.326 88.929 322.813 89.9635 324.238C90.998 325.66 92.0468 327.071 93.1159 328.469C94.1266 329.793 95.173 331.088 96.2492 332.359C97.1635 333.439 98.204 334.49 99.429 335.213C101.41 336.381 104.847 336.633 105.902 334.068C106.423 332.796 105.772 331.511 104.994 330.515Z" fill="#37474F"/>
<path d="M237.608 400.664C229.637 400.813 221.673 401.278 213.702 401.449C205.796 401.618 197.887 401.662 189.98 401.588C174.099 401.438 158.222 400.83 142.375 399.731C126.365 398.621 109.094 397.021 93.1909 394.811C85.5802 393.753 77.8659 392.873 70.3456 391.25C63.5599 389.785 57.4051 386.957 52.3254 382.014C42.0242 371.992 38.0194 357.256 36.3742 343.178C36.154 341.289 35.973 339.396 35.8206 337.5C35.8099 337.371 35.6171 337.375 35.6254 337.505C36.5551 351.941 38.7932 366.992 47.8444 378.598C51.7599 383.618 56.7432 387.732 62.5873 390.082C69.7099 392.944 77.6159 393.615 85.1361 394.639C101.105 396.811 118.443 398.489 134.504 399.74C150.667 400.997 166.868 401.781 183.075 402.021C199.28 402.261 215.503 402.031 231.692 401.232C233.669 401.135 235.641 401.019 237.613 400.846C237.723 400.837 237.722 400.663 237.608 400.664Z" fill="#37474F"/>
<path d="M258.886 365.721C257.366 359.382 253.56 354.068 248.212 350.404C242.477 346.475 235.613 344.686 228.822 343.695C221.137 342.574 213.354 342.002 205.627 341.249C189.769 339.704 173.903 338.278 158.025 336.967C142.159 335.658 107.98 332.994 106.059 332.919C105.892 332.913 105.856 333.197 106.027 333.217C121.344 334.924 135.28 336.39 150.629 337.788C166.053 339.194 181.471 340.666 196.883 342.195C204.561 342.957 212.24 343.727 219.915 344.523C227.027 345.26 234.344 345.987 241.016 348.742C246.74 351.107 251.885 354.909 254.804 360.495C257.624 365.891 258.218 372.34 257.09 378.274C256.042 383.783 253.459 389.151 249.685 393.305C245.967 397.398 241.249 400.531 235.81 401.708C234.406 402.011 232.712 402.229 231.422 402.488C231.324 402.508 231.223 402.715 231.323 402.718C242.796 403.01 253.408 394.604 257.55 384.092C259.831 378.303 260.341 371.785 258.886 365.721Z" fill="#37474F"/>
<path d="M90.9277 249.746C97.1849 277.375 110.196 310.508 115.768 315.893C122.816 322.703 166.585 331.743 168.917 332.001C174.691 332.599 182.86 295.606 179.467 295.559C170.011 295.43 139.774 290.241 137.74 288.135C135.629 285.933 121.309 267.73 106.586 247.164C96.4242 232.952 87.0456 232.602 90.9277 249.746Z" fill="#AD6359"/>
<path d="M165.642 331.435C166.253 331.748 174.932 336.152 180.302 337.727C184.307 338.902 195.929 341.974 197.656 337.678C198.838 334.75 192.216 332.136 187.574 330.183C185.129 329.154 182.118 326.576 182.843 325C184.111 322.244 190.406 325.03 194.543 327.455C202.546 332.145 213.199 340.577 218.104 336.512C219.956 334.975 217.815 332.162 214.678 329.402C219.771 332.622 225.204 335.266 227.328 333.641C228.548 332.715 228.607 331.439 227.932 329.982C229.506 330.5 230.898 330.403 231.871 329.376C233.533 327.639 232.731 325.068 230.923 322.431C231.505 322.371 232.028 322.076 232.431 321.442C235.955 316.081 218.421 300.624 212.347 299.167C194.479 294.861 175.638 295.61 175.638 295.61C168.605 301.221 165.628 331.423 165.642 331.435Z" fill="#AD6359"/>
<path d="M191.969 314.987C196.178 315.658 200.319 317.248 203.884 319.62C208.409 322.632 211.408 326.151 215.202 329.697C215.302 329.79 215.16 329.949 215.06 329.856C213.252 328.17 205.759 321.832 203.822 320.39C200.273 317.75 196.306 315.891 191.954 315.06C191.908 315.051 191.923 314.98 191.969 314.987Z" fill="#263238"/>
<path d="M195.319 307.385C200.015 308.684 204.827 309.999 209.183 312.238C213.949 314.689 217.675 318.675 221.338 322.512C223.538 324.816 225.691 327.166 227.784 329.569C227.872 329.67 227.737 329.828 227.642 329.728C223.925 325.764 220.091 321.909 216.138 318.181C212.422 314.673 208.272 311.986 203.504 310.152C200.817 309.117 198.058 308.291 195.302 307.468C195.249 307.453 195.266 307.37 195.319 307.385Z" fill="#263238"/>
<path d="M200.354 300.741C204.917 301.691 208.898 302.506 212.935 304.97C218.279 308.231 223.433 313.718 225.241 315.662C227.238 317.811 229.161 320.023 231.053 322.266C231.13 322.357 230.973 322.494 230.893 322.404C226.573 317.499 221.916 312.839 216.999 308.535C214.649 306.478 212.094 304.686 209.224 303.436C206.386 302.201 203.344 301.499 200.348 300.771C200.328 300.767 200.334 300.737 200.354 300.741Z" fill="#263238"/>
<path d="M175.243 291.288L160.759 336.943C160.759 336.943 121.861 325.705 114.767 317.992C107.672 310.278 94.6372 270.513 90.8205 251.244C87.0039 231.976 96.711 232.475 105.604 244.639C114.497 256.802 136.641 286.285 137.881 286.928C139.121 287.569 175.243 291.288 175.243 291.288Z" fill="#455A64"/>
<path d="M157.072 316.637C158.825 311.254 160.623 305.883 162.178 300.435C163.061 297.34 163.962 294.248 164.816 291.143C164.848 291.025 164.653 290.954 164.61 291.07C162.636 296.402 160.669 301.755 158.94 307.178C157.218 312.572 155.452 317.954 153.8 323.372C152.861 326.453 152.018 329.55 151.266 332.686C151.252 332.748 151.349 332.785 151.374 332.725C153.528 327.454 155.306 322.056 157.072 316.637Z" fill="#263238"/>
<path opacity="0.1" d="M141.143 330.617C140.568 330.414 139.994 330.211 139.419 330.006C136.18 328.837 132.877 327.582 129.767 326.298C129.365 326.138 128.969 325.972 128.583 325.805C127.958 325.543 127.333 325.276 126.73 325.007C126.421 324.877 126.127 324.738 125.825 324.608C125.718 324.558 125.61 324.514 125.502 324.464C125.186 324.318 124.877 324.174 124.568 324.029C123.333 323.457 122.162 322.884 121.072 322.305C120.821 322.174 120.562 322.037 120.318 321.898C118.329 320.812 116.679 319.74 115.524 318.722C115.387 318.599 115.252 318.476 115.13 318.353C114.994 318.23 114.879 318.107 114.772 317.991C107.673 310.279 94.6397 270.513 90.8242 251.241C90.7814 251.018 90.7385 250.794 90.6968 250.577C90.6897 250.527 90.6825 250.482 90.6754 250.432C90.4206 248.968 90.1945 247.158 90.0123 245.195V245.174C89.4956 235.589 94.0206 234.034 99.5968 238.259C113.504 268.293 134.717 317.88 141.143 330.617Z" fill="black"/>
<path d="M28.7075 341.696C28.9253 341.957 120.296 329.664 121.213 328.683C122.497 327.303 112.024 258.276 96.7634 236.671C92.9468 231.268 79.4468 230.502 72.9979 235.103C41.0384 257.9 27.9301 340.752 28.7075 341.696Z" fill="#97A97C"/>
<path d="M71.5444 235.706C71.5444 235.706 85.2051 261.194 86.9229 271.457C88.6408 281.721 90.9265 332.985 90.5479 334.893C90.1694 336.801 88.6277 338.056 88.6277 338.056V342.981L27.0646 348.231V343.912C27.0646 343.912 24.1456 342.379 24.8408 333.594C25.536 324.808 51.9468 244.351 71.5444 235.706Z" fill="#455A64"/>
<path d="M30.2848 343.997C48.3634 341.597 66.6526 339.983 84.8753 339.182C66.7919 341.584 48.505 343.196 30.2848 343.997Z" fill="#37474F"/>
<path d="M96.7634 236.671C96.7634 236.671 99.9896 263.175 100.431 268.056C100.873 272.937 107.963 330.596 108.66 332.157C109.356 333.718 110.522 335.888 110.522 335.888L111.01 339.183L123.027 336.526L122.59 333.011C122.59 333.011 125.098 331.256 124.73 326.637C124.365 322.019 110.168 247.815 96.7634 236.671Z" fill="#455A64"/>
<path d="M111.884 335.939C114.921 334.387 118.168 333.618 121.579 333.663C118.544 335.222 115.293 335.979 111.884 335.939Z" fill="#37474F"/>
<path d="M65.6218 239.369C46.5885 251.698 -5.17464 303.632 3.59679 317.697C12.4301 331.862 80.3099 332.942 100.498 328.873C106.503 327.663 94.5301 288.981 88.423 286.609C83.3385 284.634 53.4254 290.179 53.0373 288.434C52.5992 286.463 60.0968 274.621 72.4111 252.866C86.6087 227.783 74.0289 233.923 65.6218 239.369Z" fill="#AD6359"/>
<path d="M116.287 284.523C129.3 285.937 132.425 288.304 144.04 283.646C151.661 280.59 156.877 284.161 151.334 290.673C142.267 301.325 125.096 303.037 118.972 301.911L116.287 284.523Z" fill="#AD6359"/>
<path d="M79.8491 288.242C79.8491 288.242 95.9479 283.935 109.965 284.065C119.657 284.156 140.723 286.711 155.192 311.845C158.624 317.807 159.3 328.743 150.169 321.048C143.684 315.582 141.217 310.15 136.868 307.66C136.868 307.66 136.082 321.674 129.994 324.889C127.274 326.327 119.757 330.074 113.49 332.156C113.49 332.156 112.671 330.909 111.857 329.18C111.857 329.18 105.888 331.645 96.6396 328.351L79.8491 288.242Z" fill="#AD6359"/>
<path d="M119.201 285.633C122.998 289.02 130.923 296.335 135.332 304.579C140.23 313.738 147.203 332.704 140.426 336.261C135.457 338.869 132.161 331.862 132.161 331.862C132.161 331.862 133.396 340.312 128.394 341.683C123.836 342.932 121.61 337.358 121.61 337.358C121.61 337.358 121.48 342.613 116.859 342.968C111.299 343.395 112.482 332.312 106.479 327.865C105.129 326.867 119.201 285.633 119.201 285.633Z" fill="#AD6359"/>
<path d="M124.823 308.157C127.873 311.93 132.606 322.281 132.278 331.683C132.27 331.896 132.106 332.004 132.072 331.809C130.243 321.38 126.543 312.064 124.737 308.204C124.712 308.152 124.788 308.115 124.823 308.157Z" fill="#263238"/>
<path d="M115.75 313.386C118.048 316.912 122.453 327.799 121.793 337.315C121.779 337.528 121.606 337.626 121.58 337.429C120.116 326.453 117.235 317.388 115.661 313.426C115.641 313.374 115.721 313.34 115.75 313.386Z" fill="#263238"/>
<path d="M136.891 307.578C140.685 309.821 142.844 312.51 145.699 315.791C147.111 317.414 148.553 319.019 150.137 320.475C151.58 321.802 153.698 323.791 155.831 322.822C157.018 322.282 157.365 320.842 157.428 319.654C157.499 318.32 156.835 315.655 156.348 314.409C156.323 314.346 156.432 314.301 156.459 314.364C156.917 315.478 157.75 317.948 157.878 319.149C157.993 320.237 157.988 321.467 157.443 322.45C156.273 324.565 153.535 324.191 151.804 323.092C150.768 322.433 149.85 321.563 148.972 320.713C148.122 319.891 147.311 319.027 146.523 318.145C144.906 316.333 143.394 314.431 141.799 312.601C140.046 310.591 138.76 309.5 136.796 307.699C136.729 307.639 136.816 307.534 136.891 307.578Z" fill="#263238"/>
<path d="M141.847 324.205C141.374 321.594 138.079 310.383 136.782 307.656C136.749 307.586 136.846 307.53 136.887 307.597C139.319 311.439 142.431 320.8 142.979 323.686C143.521 326.538 144.065 330.146 143.351 332.993C142.276 337.288 139.232 337.386 138.13 337.331C136.815 337.265 135.615 336.682 134.636 335.814C133.547 334.847 132.674 333.191 132.115 331.868C132.085 331.798 132.182 331.738 132.219 331.809C133.279 333.873 135.325 336.165 137.729 336.446C138.772 336.568 139.909 336.365 140.735 335.68C141.706 334.877 142.09 333.594 142.286 332.394C142.73 329.676 142.332 326.887 141.847 324.205Z" fill="#263238"/>
<path d="M80.0039 286.358L89.6813 334.892C89.6813 334.892 4.78963 332.732 1.37178 316.952C-2.04608 301.171 42.9254 254.123 60.9956 241.676C81.9373 227.252 82.4384 234.08 74.7301 249.603C66.6599 265.855 53.1682 288.9 53.1682 288.9L80.0039 286.358Z" fill="#455A64"/>
<path d="M25.8528 294.282C30.217 292.608 34.7444 291.355 39.3004 290.332C43.8135 289.318 48.4135 288.797 53.0206 288.459C55.6528 288.266 58.2837 288.201 60.9206 288.119C61.0016 288.116 61.0016 288.239 60.9218 288.244C56.292 288.51 51.6659 289.185 47.1004 289.984C42.5539 290.781 38.029 291.657 33.5147 292.621C30.9611 293.166 28.4337 293.832 25.9004 294.463C25.7837 294.492 25.742 294.325 25.8528 294.282Z" fill="#263238"/>
<path d="M79.8194 286.178C79.3884 286.182 55.5896 287.919 54.7849 288.074C54.9599 287.765 61.8396 277.037 62.8599 275.469C62.9611 275.312 63.0551 275.152 63.1551 274.996C63.748 274.332 64.3432 273.672 64.9099 272.982C65.6361 272.1 66.3551 271.213 67.0753 270.326C67.098 270.299 67.0599 270.263 67.0349 270.289C66.2765 271.14 65.5158 271.989 64.7622 272.845C64.4134 273.24 64.0777 273.647 63.7444 274.055C64.4349 272.939 65.1111 271.818 65.7884 270.691C66.8682 268.893 67.8872 267.066 68.9039 265.232C68.9372 265.172 68.848 265.128 68.8122 265.183C66.7896 268.308 64.6694 271.367 62.6372 274.485C60.6087 277.598 52.9313 289.044 52.9694 289.043C53.0015 289.085 79.3194 286.579 79.8349 286.5C80.036 286.471 80.0313 286.176 79.8194 286.178Z" fill="#263238"/>
<path d="M74.2146 314.832C73.1658 309.423 72.1598 304.004 70.911 298.633C70.2015 295.582 69.5087 292.525 68.7694 289.48C68.742 289.365 68.542 289.396 68.5598 289.516C69.3979 294.987 70.2515 300.472 71.3396 305.904C72.4217 311.308 73.4587 316.721 74.611 322.112C75.2658 325.178 76.011 328.211 76.8515 331.235C76.8682 331.295 76.9694 331.279 76.9622 331.216C76.3051 325.713 75.2706 320.279 74.2146 314.832Z" fill="#263238"/>
<path d="M90.548 335.833C90.0777 334.296 89.5444 332.115 89.0099 330.599C88.8682 330.197 88.5873 330.203 88.6789 330.609C88.9873 331.976 89.1527 333.466 89.448 334.862C88.2635 334.803 87.0801 334.718 85.8944 334.671C84.523 334.616 83.1516 334.568 81.7801 334.51C79.0956 334.394 76.4123 334.251 73.7301 334.079C68.2992 333.732 62.8754 333.269 57.4635 332.692C46.6158 331.535 35.7825 329.977 25.1099 327.697C22.1242 327.059 19.1492 326.364 16.1992 325.576C13.2039 324.775 9.9706 323.893 7.56346 322.951C7.48727 322.921 7.43727 323.052 7.51227 323.088C9.95751 324.269 12.2742 325.203 14.867 325.995C17.5135 326.803 20.1825 327.538 22.873 328.184C28.2301 329.47 33.6539 330.47 39.0944 331.32C49.8837 333.008 60.7504 334.226 71.642 335.009C74.6944 335.229 77.748 335.412 80.8051 335.56C82.3468 335.634 83.8896 335.708 85.4337 335.753C86.9754 335.797 90.6277 336.095 90.548 335.833Z" fill="#263238"/>
<path d="M193.327 340.1H97.0016V343.998H193.327V340.1Z" fill="#455A64"/>
<path d="M150.3 340.1H97.0016V343.998H150.3V340.1Z" fill="#A6A6A6"/>
<path d="M148.684 343.994H233.106L245.035 286.474H160.612L148.684 343.994Z" fill="#A6A6A6"/>
<path d="M152.512 343.994H236.935L248.862 286.474H164.441L152.512 343.994Z" fill="#C7C7C7"/>
<path d="M195.061 316.518C194.735 319.635 196.988 322.164 200.097 322.164C203.204 322.164 205.988 319.637 206.315 316.518C206.642 313.401 204.387 310.873 201.279 310.873C198.172 310.874 195.387 313.401 195.061 316.518Z" fill="#EBEBEB"/>
<path d="M89.3528 256.388C89.3528 256.388 73.2266 240.848 62.8718 241.3L52.3266 248.481C52.3266 248.481 48.7016 246.705 47.7933 244.878C45.5444 240.361 47.579 232.871 56.923 225.662C65.479 219.061 79.5909 219.416 91.3885 222.421C102.718 225.306 112.593 232.742 109.192 240.169C105.791 247.596 89.3528 256.388 89.3528 256.388Z" fill="#97A97C"/>
<path opacity="0.1" d="M90.4539 252.902C90.4539 252.902 103.334 243.501 104.623 237.975C105.911 232.449 94.8753 227.295 87.7599 225.298C76.7468 222.208 69.273 222.983 63.1718 228.921C57.0706 234.858 90.4539 252.902 90.4539 252.902Z" fill="black"/>
<path d="M88.9338 252.41C84.86 251.771 77.9969 242.499 76.0112 235.454C75.8779 234.97 77.566 230.597 79.3683 225.187C80.4481 221.899 81.5743 218.212 82.36 214.774L102.66 224.953C102.66 224.953 98.9005 231.675 97.5683 237.678C97.4624 238.18 97.4052 238.658 97.3933 239.123C97.385 239.19 97.3862 239.272 97.3707 239.364C97.1957 242.144 95.3136 253.411 88.9338 252.41Z" fill="#AD6359"/>
<path d="M97.391 239.124C97.3838 239.192 97.3922 239.266 97.3743 239.366C96.6731 239.305 95.941 239.18 95.1327 238.973C82.9755 235.885 83.3969 220.258 83.8291 215.51L102.67 224.95C102.67 224.95 98.9088 231.673 97.5612 237.68C97.4684 238.179 97.4041 238.651 97.391 239.124Z" fill="#263238"/>
<path d="M104.143 210.14C103.197 215.377 106.142 220.299 110.722 221.132C115.302 221.966 119.782 218.396 120.729 213.158C121.675 207.921 118.73 203.001 114.15 202.167C109.571 201.334 105.091 204.903 104.143 210.14Z" fill="#37474F"/>
<path d="M100.787 209.982C99.7337 215.808 103.01 221.283 108.105 222.211C113.2 223.137 118.185 219.166 119.237 213.34C120.291 207.514 117.015 202.039 111.919 201.113C106.824 200.185 101.841 204.156 100.787 209.982Z" fill="#DBDBDB"/>
<path d="M83.9647 191.21C80.1278 198.453 79.8659 221.488 84.3635 227.513C90.8838 236.248 103.708 239.465 111.648 231.11C119.346 223.011 119.158 192.984 113.934 187.288C106.241 178.897 89.6314 180.512 83.9647 191.21Z" fill="#AD6359"/>
<path d="M100.823 206.936C101.523 206.896 102.162 206.741 102.85 206.63C103.627 206.504 104.259 206.484 104.859 205.923C105.18 205.622 105.194 204.973 104.933 204.632C104.322 203.837 103.333 203.754 102.392 203.867C101.371 203.99 100.615 204.346 99.9016 205.087C99.2111 205.806 99.8992 206.99 100.823 206.936Z" fill="#263238"/>
<path d="M115.504 208.337C114.838 208.116 114.261 207.801 113.625 207.515C112.907 207.191 112.303 207.009 111.868 206.31C111.635 205.935 111.788 205.306 112.13 205.044C112.925 204.435 113.902 204.613 114.781 204.967C115.736 205.351 116.374 205.891 116.871 206.793C117.354 207.664 116.382 208.628 115.504 208.337Z" fill="#263238"/>
<path d="M99.7432 224.348C100.069 224.753 100.378 225.293 100.929 225.405C101.459 225.514 102.113 225.346 102.625 225.213C102.675 225.2 102.719 225.257 102.683 225.3C102.213 225.845 101.331 226.116 100.635 225.906C99.9539 225.701 99.6801 225.058 99.5873 224.4C99.5742 224.309 99.6956 224.29 99.7432 224.348Z" fill="#263238"/>
<path d="M101.9 219.926C102.603 221.365 103.781 222.245 105.117 222.674C105.712 222.869 106.353 222.967 106.988 222.983C107.112 222.995 107.238 222.996 107.353 222.984C107.466 222.984 107.569 222.983 107.696 222.973C107.878 222.968 107.994 222.83 108.044 222.664L108.046 222.654C108.05 222.598 108.056 222.551 108.049 222.495C108.049 222.495 108.049 222.495 108.05 222.483L108.063 222.348C108.235 221.166 108.333 219.347 108.333 219.347C108.74 219.615 110.825 220.871 110.863 220.246C111.161 215.078 111.493 209.332 110.702 204.126C110.684 203.953 110.422 203.961 110.417 204.132C109.935 209.087 110.324 214.093 109.919 219.078C109.248 218.727 108.159 218.095 107.54 218.034C107.366 218.063 107.413 221.551 107.294 222.076C107.294 222.076 107.292 222.098 107.278 222.131C105.261 222.151 103.834 221.371 102.062 219.804C101.956 219.703 101.822 219.792 101.9 219.926Z" fill="#263238"/>
<path d="M103.585 210.455C103.579 210.396 103.459 210.516 103.454 210.58C103.36 212.119 102.993 213.866 101.562 214.245C101.518 214.257 101.515 214.334 101.567 214.332C103.278 214.252 103.741 211.929 103.585 210.455Z" fill="#263238"/>
<path d="M102.368 208.725C99.9254 208.307 99.2706 213.239 101.535 213.626C103.762 214.007 104.416 209.075 102.368 208.725Z" fill="#263238"/>
<path d="M112.303 211.207C112.323 211.15 112.412 211.296 112.4 211.358C112.137 212.877 112.092 214.662 113.397 215.364C113.437 215.385 113.422 215.462 113.372 215.447C111.727 214.972 111.811 212.604 112.303 211.207Z" fill="#263238"/>
<path d="M113.885 209.805C116.357 209.963 115.859 214.915 113.567 214.767C111.312 214.621 111.812 209.671 113.885 209.805Z" fill="#263238"/>
<path d="M80.8219 213.973C84.1231 215.111 89.6576 210.48 90.6433 208.432C91.629 206.383 91.3481 196.182 93.1683 193.131C94.9886 190.08 98.5874 188.543 101.3 189.528C104.015 190.514 107.139 194.373 109.19 194.309C111.241 194.243 111.487 190.25 112.908 190.336C116.033 190.523 117.196 198.369 117.553 201.84C117.553 201.84 120.327 184.426 103.671 181.867C89.1564 179.637 83.8469 189.452 82.31 193.789C79.3683 202.099 80.8219 213.973 80.8219 213.973Z" fill="#263238"/>
<path d="M87.2564 211.103C87.2564 211.103 84.8648 202.49 81.1326 203.108C77.4005 203.727 77.5076 215.027 80.6969 217.694C83.8862 220.361 86.4052 217.447 86.4052 217.447L87.2564 211.103Z" fill="#AD6359"/>
<path d="M81.2433 206.346C81.1862 206.32 81.1457 206.398 81.1897 206.438C83.3969 208.393 83.9112 211.265 83.9885 214.082C83.5588 212.857 82.7005 211.965 81.104 212.428C81.0207 212.453 81.0469 212.581 81.1255 212.591C82.2588 212.736 82.9552 213.188 83.3707 214.287C83.6647 215.064 83.7433 215.944 83.8612 216.765C83.9005 217.038 84.3588 217.061 84.3647 216.765C84.3647 216.743 84.3647 216.719 84.3647 216.698C85.585 213.429 84.6505 207.922 81.2433 206.346Z" fill="#263238"/>
<path d="M113.909 186.715C111.909 184.794 109.466 182.662 106.316 181.033C103.166 179.404 92.4611 176.388 89.2004 177.563C85.9397 178.738 81.6897 188.336 81.0956 189.753C80.5016 191.168 77.9694 200.105 80.3432 203.358C82.7171 206.611 88.4135 191.941 95.1635 188.861C101.913 185.779 113.909 186.715 113.909 186.715Z" fill="#97A97C"/>
<path opacity="0.1" d="M113.909 186.718C113.909 186.718 101.911 185.779 95.1647 188.863C88.4135 191.936 82.7183 206.611 80.3385 203.359C79.2933 201.925 79.123 200.303 79.3968 197.782C81.6314 193.705 85.8195 187.643 91.104 184.319C96.054 181.205 102.64 181.133 109.085 182.704C110.961 183.983 112.537 185.397 113.909 186.718Z" fill="black"/>
<path d="M77.9111 212.414C79.5969 208.653 87.2838 199.754 93.5528 195.337C99.8219 190.92 113.18 191.84 114.809 192.611C116.522 193.42 116.035 196.025 116.818 195.896C117.602 195.767 117.285 190.25 116.384 189.133C115.483 188.016 113.924 186.205 112.128 185.593C110.33 184.982 98.9492 182.043 93.2421 185.274C87.5349 188.506 77.0814 199.598 76.885 203.35C76.8385 204.249 77.7207 205.165 77.6433 206.437C77.5421 208.107 77.2219 209.965 77.2909 211.184C77.3469 212.167 77.7647 212.741 77.9111 212.414Z" fill="#97A97C"/>
<path d="M95.4696 193.024C94.7374 192.091 94.0886 191.131 93.5232 190.087C92.9648 189.058 92.4362 187.947 92.1362 186.811C92.1148 186.728 91.9874 186.743 92.0017 186.832C92.2041 188.058 92.5005 189.221 93.0743 190.332C93.6255 191.398 94.4041 192.4 95.3101 193.189C95.4101 193.277 95.5482 193.125 95.4696 193.024Z" fill="#263238"/>
<path d="M79.2826 208.543C79.2779 208.226 79.185 207.912 79.1505 207.595C79.1112 207.234 79.1029 206.87 79.1398 206.508C79.2112 205.816 79.4648 205.178 79.3874 204.473C79.3255 203.914 79.1386 203.385 78.954 202.857C78.7445 202.256 78.5481 201.635 78.7683 201.01C78.7969 200.928 78.6719 200.877 78.6409 200.96C78.2076 202.131 78.6886 203.253 78.8409 204.422C78.9386 205.171 78.6624 205.878 78.6362 206.622C78.6136 207.251 78.6612 208.088 79.0636 208.608C79.1243 208.684 79.2838 208.656 79.2826 208.543Z" fill="#263238"/>
<path d="M82.1338 204.858C81.929 204.283 81.6802 203.746 81.5314 203.149C81.3886 202.577 81.2957 201.987 81.2314 201.4C81.1671 200.821 81.1505 200.238 81.0981 199.659C81.0362 198.974 80.8921 198.288 80.8636 197.602C80.86 197.513 80.7255 197.536 80.729 197.623C80.76 198.336 80.666 199.055 80.6719 199.769C80.6779 200.385 80.7445 201.005 80.829 201.615C80.9124 202.203 81.0386 202.777 81.2326 203.339C81.416 203.87 81.6814 204.482 82.0707 204.896C82.0981 204.927 82.1481 204.899 82.1338 204.858Z" fill="#263238"/>
<path d="M84.9112 201.598C84.3648 200.627 83.9255 199.543 83.6814 198.454C83.441 197.379 83.2624 196.284 83.0945 195.195C83.0838 195.121 82.96 195.119 82.96 195.199C82.9541 196.35 82.9422 197.49 83.216 198.618C83.3457 199.152 83.5017 199.708 83.7529 200.199C84.0267 200.733 84.3981 201.219 84.7898 201.672C84.8398 201.728 84.9529 201.672 84.9112 201.598Z" fill="#263238"/>
<path d="M87.7553 198.543C87.4148 198.123 87.2719 197.639 87.1124 197.133C86.9374 196.578 86.7743 196.018 86.6303 195.454C86.4922 194.912 86.3386 194.375 86.2005 193.834C86.0612 193.289 85.9303 192.724 86.0279 192.162C86.041 192.086 85.9195 192.057 85.8969 192.129C85.7243 192.678 85.735 193.235 85.7886 193.801C85.8469 194.421 85.9445 195.031 86.1076 195.632C86.2695 196.222 86.4588 196.804 86.6933 197.369C86.8981 197.861 87.1612 198.386 87.6243 198.678C87.7112 198.732 87.8279 198.631 87.7553 198.543Z" fill="#263238"/>
<path d="M90.5279 194.363C90.2981 193.88 90.0743 193.399 89.8839 192.9C89.6946 192.403 89.5291 191.895 89.3719 191.388C89.2077 190.856 89.0279 190.321 88.8969 189.781C88.8755 189.695 88.7565 189.715 88.7624 189.803C88.7981 190.365 88.8374 190.915 88.96 191.468C89.0791 192.009 89.241 192.534 89.435 193.054C89.6255 193.564 89.835 194.074 90.0886 194.555C90.3338 195.02 90.6089 195.556 91.0196 195.893C91.0803 195.943 91.191 195.883 91.1708 195.802C91.0446 195.299 90.7481 194.827 90.5279 194.363Z" fill="#263238"/>
<path d="M99.2207 191.913C99.0148 191.299 98.8136 190.7 98.5493 190.108C98.2815 189.506 97.9719 188.92 97.6386 188.353C96.9862 187.241 96.2672 186.182 95.3886 185.237C95.3398 185.185 95.2315 185.235 95.2719 185.308C96.5219 187.541 97.866 189.723 99.0946 191.969C99.1386 192.046 99.2493 191.997 99.2207 191.913Z" fill="#263238"/>
<path d="M102.755 189.464C102.535 188.857 102.254 188.281 101.903 187.74C101.168 186.608 100.236 185.63 99.2767 184.688C99.216 184.628 99.116 184.7 99.1696 184.773C99.9243 185.805 100.698 186.824 101.393 187.899C101.736 188.428 102.074 188.971 102.356 189.535C102.641 190.104 102.795 190.717 103.053 191.292C103.073 191.336 103.147 191.329 103.151 191.277C103.184 190.671 102.959 190.026 102.755 189.464Z" fill="#263238"/>
<path d="M106.514 189.127C106.323 188.538 106.066 187.979 105.76 187.442C105.18 186.421 104.433 185.526 103.553 184.754C103.495 184.702 103.411 184.792 103.459 184.85C104.189 185.758 104.843 186.736 105.408 187.755C105.691 188.267 105.947 188.794 106.21 189.316C106.472 189.835 106.637 190.432 106.949 190.922C106.975 190.961 107.033 190.928 107.028 190.887C106.959 190.297 106.696 189.689 106.514 189.127Z" fill="#263238"/>
<path d="M109.531 188.053C109.248 187.574 108.94 187.112 108.628 186.652C108.32 186.197 108.002 185.746 107.566 185.407C107.501 185.357 107.434 185.443 107.472 185.505C108.03 186.422 108.571 187.355 109.109 188.285C109.617 189.162 109.82 190.124 110.134 191.075C110.148 191.117 110.216 191.105 110.218 191.062C110.272 189.996 110.077 188.973 109.531 188.053Z" fill="#263238"/>
<path d="M112.648 188.493C112.18 187.491 111.46 186.693 110.666 185.943C110.61 185.891 110.518 185.985 110.572 186.04C111.289 186.792 111.81 187.734 112.265 188.66C112.729 189.606 113.023 190.609 113.272 191.629C113.284 191.678 113.365 191.685 113.366 191.627C113.394 190.546 113.102 189.465 112.648 188.493Z" fill="#263238"/>
<path d="M115.8 191.611C115.781 191.373 115.735 191.136 115.685 190.903C115.581 190.432 115.408 189.975 115.21 189.538C114.804 188.639 114.216 187.844 113.642 187.049C113.591 186.977 113.483 187.063 113.535 187.134C114.109 187.897 114.568 188.741 114.946 189.619C115.131 190.051 115.275 190.494 115.396 190.949C115.455 191.172 115.499 191.396 115.539 191.622C115.575 191.834 115.58 192.085 115.658 192.286C115.678 192.34 115.766 192.34 115.784 192.283C115.848 192.08 115.817 191.82 115.8 191.611Z" fill="#263238"/>
<path d="M116.971 193.202C116.971 192.802 116.953 192.409 116.908 192.011C116.862 191.616 116.797 191.23 116.702 190.843C116.605 190.449 116.493 190.057 116.415 189.658C116.396 189.563 116.258 189.598 116.285 189.693C116.392 190.087 116.44 190.497 116.478 190.902C116.514 191.285 116.555 191.668 116.592 192.052C116.629 192.435 116.667 192.817 116.702 193.201C116.736 193.588 116.721 193.995 116.798 194.376C116.81 194.439 116.892 194.436 116.906 194.376C116.994 194.003 116.971 193.584 116.971 193.202Z" fill="#263238"/>
<path d="M79.9921 204.808C79.9921 204.808 80.0159 192.718 84.7385 187.221C92.4409 178.256 107.477 181.295 112.705 185.39C112.705 185.39 98.4623 179.427 89.2242 188.278C85.3325 192.006 83.7944 205.578 83.7944 205.578L79.9921 204.808Z" fill="#DBDBDB"/>
<path d="M90.0647 211.939C89.4182 217.824 84.7218 222.134 79.5754 221.566C74.429 220.997 70.7802 215.765 71.4254 209.88C72.0718 203.994 76.7682 199.684 81.9147 200.253C87.0623 200.82 90.7111 206.053 90.0647 211.939Z" fill="#DBDBDB"/>
<path d="M87.3861 211.305C86.8052 216.595 82.5838 220.469 77.9564 219.958C73.3302 219.447 70.0504 214.744 70.6314 209.453C71.2123 204.163 75.4338 200.289 80.0599 200.8C84.6873 201.311 87.9671 206.014 87.3861 211.305Z" fill="#37474F"/>
<path opacity="0.1" d="M82.8148 210.896C82.4576 214.147 79.8636 216.528 77.0207 216.214C74.1779 215.9 72.1624 213.01 72.5195 209.759C72.8767 206.508 75.4707 204.127 78.3136 204.441C81.1564 204.755 83.1719 207.645 82.8148 210.896Z" fill="black"/>
<path d="M90.454 252.902C90.454 252.902 77.4397 231.256 61.4159 229.251L62.8707 241.301C62.8707 241.301 72.4195 241.236 89.3516 256.389L90.454 252.902Z" fill="#97A97C"/>
<path d="M58.5587 241.56C61.4849 241.168 64.4028 241.793 67.1587 242.637C69.9337 243.494 72.5551 244.781 75.0587 246.246C77.5849 247.678 79.9468 249.389 82.2671 251.145L85.6385 253.932L88.8849 256.874L89.2492 257.205L89.6504 256.994C92.6432 255.422 95.4909 253.653 98.229 251.698C99.5921 250.715 100.942 249.71 102.18 248.568C103.424 247.438 108.583 242.543 109.621 238.995C107.774 242.438 100.521 249.164 97.7349 250.958C96.3361 251.848 94.8956 252.675 93.4432 253.474C91.9921 254.271 90.5302 255.072 89.054 255.789L89.8194 255.908L86.5682 252.869C85.4456 251.899 84.2956 250.954 83.1444 250.016C81.9397 249.143 80.7528 248.246 79.5159 247.418C78.2492 246.633 77.0111 245.805 75.6754 245.136C73.0706 243.688 70.2671 242.586 67.379 241.85C66.6611 241.653 65.9206 241.534 65.1909 241.394C64.4492 241.308 63.7123 241.203 62.9682 241.176C61.4897 241.084 59.979 241.145 58.5587 241.56Z" fill="#263238"/>
<path d="M52.3265 248.481C54.3146 247.477 56.1253 246.324 57.8944 245.138C59.6408 243.932 61.3456 242.691 62.8718 241.3C60.8825 242.303 59.0718 243.455 57.3039 244.643C55.5575 245.85 53.8539 247.092 52.3265 248.481Z" fill="#263238"/>
<path d="M83.9099 249.08C83.9099 249.08 82.6837 255.314 82.6468 264.303C82.6325 267.86 84.2123 280.595 88.1456 280.067C92.0778 279.539 85.5194 271.414 84.279 264.705C83.0194 257.894 84.7468 253.038 84.9183 249.005L83.9099 249.08Z" fill="#263238"/>
<path d="M97.9016 249.544C97.9016 249.544 99.8552 256.233 101.087 264.291C101.574 267.479 101.855 279.114 98.2575 279.168C94.6599 279.223 99.4587 271.055 99.6766 264.871C99.898 258.593 97.679 253.207 96.9885 249.613L97.9016 249.544Z" fill="#263238"/>
<path d="M122.252 166.749C121.675 167.991 120.205 168.529 118.967 167.953C117.729 167.375 117.192 165.9 117.767 164.658C118.343 163.416 119.813 162.877 121.052 163.454C122.29 164.032 122.827 165.507 122.252 166.749Z" fill="#97A97C"/>
<path d="M127.495 155.424L125.783 154.625L120.543 165.932L122.255 166.73L127.495 155.424Z" fill="#97A97C"/>
<path d="M131.023 166.862C130.447 168.104 128.977 168.643 127.739 168.066C126.5 167.488 125.964 166.013 126.539 164.771C127.115 163.529 128.585 162.99 129.823 163.567C131.062 164.145 131.599 165.62 131.023 166.862Z" fill="#97A97C"/>
<path d="M136.268 155.538L134.556 154.739L129.316 166.045L131.028 166.844L136.268 155.538Z" fill="#97A97C"/>
<path d="M136.266 155.554L125.09 156.131L125.79 154.619L136.966 154.043L136.266 155.554Z" fill="#97A97C"/>
<g opacity="0.3">
<path d="M122.252 166.749C121.675 167.991 120.205 168.529 118.967 167.953C117.729 167.375 117.192 165.9 117.767 164.658C118.343 163.416 119.813 162.877 121.052 163.454C122.29 164.032 122.827 165.507 122.252 166.749Z" fill="white"/>
<path d="M127.495 155.424L125.783 154.625L120.543 165.932L122.255 166.73L127.495 155.424Z" fill="white"/>
<path d="M131.023 166.862C130.447 168.104 128.977 168.643 127.739 168.066C126.5 167.488 125.964 166.013 126.539 164.771C127.115 163.529 128.585 162.99 129.823 163.567C131.062 164.145 131.599 165.62 131.023 166.862Z" fill="white"/>
<path d="M136.268 155.538L134.556 154.739L129.316 166.045L131.028 166.844L136.268 155.538Z" fill="white"/>
<path d="M136.266 155.554L125.09 156.131L125.79 154.619L136.966 154.043L136.266 155.554Z" fill="white"/>
</g>
<path d="M150.821 132.546C150.821 134.739 149.049 136.516 146.864 136.516C144.678 136.516 142.905 134.739 142.906 132.546C142.906 130.353 144.678 128.576 146.864 128.576C149.049 128.576 150.821 130.353 150.821 132.546Z" fill="#97A97C"/>
<path d="M150.821 112.542H147.798V132.501H150.821V112.542Z" fill="#97A97C"/>
<path d="M161.089 107.404H158.066V113.174H161.089V107.404Z" fill="#97A97C"/>
<path d="M161.089 108.171L147.798 115.211V112.542L161.089 105.503V108.171Z" fill="#97A97C"/>
<path d="M161.089 113.201L147.798 120.24V117.572L161.089 110.533V113.201Z" fill="#97A97C"/>
<path d="M141.832 187.301C141.423 188.453 140.159 189.053 139.011 188.642C137.862 188.231 137.263 186.963 137.674 185.812C138.084 184.659 139.348 184.06 140.496 184.471C141.644 184.881 142.243 186.15 141.832 187.301Z" fill="#97A97C"/>
<path d="M145.578 176.792L143.989 176.223L140.258 186.71L141.846 187.279L145.578 176.792Z" fill="#97A97C"/>
<path d="M151.937 176.033L150.348 175.464L149.269 178.495L150.858 179.064L151.937 176.033Z" fill="#97A97C"/>
<path d="M151.785 176.426L143.486 177.624L143.985 176.222L152.285 175.024L151.785 176.426Z" fill="#97A97C"/>
<path d="M150.846 179.069L142.546 180.267L143.044 178.865L151.344 177.667L150.846 179.069Z" fill="#97A97C"/>
<path d="M165.136 4.22571C165.95 6.28463 165.956 8.38534 165.136 10.4443C164.315 8.38534 164.321 6.28582 165.136 4.22571Z" fill="#263238"/>
<path d="M156.906 12.6811C158.959 11.8642 161.053 11.8583 163.105 12.6811C161.053 13.5052 158.959 13.498 156.906 12.6811Z" fill="#263238"/>
<path d="M165.334 20.9371C164.519 18.8782 164.514 16.7775 165.334 14.7185C166.155 16.7775 166.148 18.8782 165.334 20.9371Z" fill="#263238"/>
<path d="M173.563 12.4817C171.511 13.2985 169.417 13.3045 167.365 12.4817C169.417 11.6588 171.511 11.6648 173.563 12.4817Z" fill="#263238"/>
<path d="M472.211 334.625C473.025 336.683 473.031 338.784 472.211 340.843C471.391 338.784 471.397 336.685 472.211 334.625Z" fill="#263238"/>
<path d="M463.981 343.08C466.034 342.263 468.128 342.257 470.18 343.08C468.128 343.904 466.034 343.897 463.981 343.08Z" fill="#263238"/>
<path d="M472.41 351.336C471.596 349.277 471.588 347.176 472.41 345.117C473.23 347.176 473.224 349.277 472.41 351.336Z" fill="#263238"/>
<path d="M480.64 342.882C478.587 343.699 476.493 343.705 474.441 342.882C476.493 342.058 478.587 342.064 480.64 342.882Z" fill="#263238"/>
<path d="M22.2409 180.404C23.0552 182.463 23.0611 184.564 22.2409 186.623C21.4206 184.564 21.4266 182.463 22.2409 180.404Z" fill="#263238"/>
<path d="M14.0111 188.859C16.0635 188.043 18.1575 188.037 20.2099 188.859C18.1575 189.682 16.0635 189.676 14.0111 188.859Z" fill="#263238"/>
<path d="M22.4397 197.115C21.6254 195.057 21.6195 192.956 22.4397 190.897C23.26 192.956 23.254 195.055 22.4397 197.115Z" fill="#263238"/>
<path d="M30.6694 188.66C28.617 189.477 26.523 189.483 24.4706 188.66C26.523 187.837 28.617 187.843 30.6694 188.66Z" fill="#263238"/>
<path d="M461.156 61.2162C461.969 62.5716 461.977 63.9809 461.156 65.3364C460.337 63.9821 460.343 62.5716 461.156 61.2162Z" fill="#263238"/>
<path d="M455.704 66.8185C457.055 66.0028 458.461 65.9968 459.811 66.8185C458.461 67.6401 457.055 67.6342 455.704 66.8185Z" fill="#263238"/>
<path d="M461.289 72.2882C460.475 70.9327 460.468 69.5223 461.289 68.168C462.108 69.5223 462.102 70.9327 461.289 72.2882Z" fill="#263238"/>
<path d="M466.741 66.6871C465.39 67.5028 463.985 67.5088 462.634 66.6871C463.984 65.8643 465.39 65.8702 466.741 66.6871Z" fill="#263238"/>
<path d="M464.937 364.223C465.75 365.579 465.758 366.988 464.937 368.344C464.118 366.988 464.124 365.578 464.937 364.223Z" fill="#263238"/>
<path d="M459.485 369.824C460.835 369.008 462.241 369.002 463.591 369.824C462.242 370.647 460.836 370.641 459.485 369.824Z" fill="#263238"/>
<path d="M465.069 375.294C464.256 373.939 464.249 372.528 465.069 371.174C465.889 372.529 465.883 373.94 465.069 375.294Z" fill="#263238"/>
<path d="M470.522 369.693C469.172 370.509 467.766 370.515 466.416 369.693C467.765 368.87 469.171 368.876 470.522 369.693Z" fill="#263238"/>
<path d="M38.1338 203.42C38.9469 204.775 38.9541 206.185 38.1338 207.54C37.3136 206.185 37.3195 204.774 38.1338 203.42Z" fill="#263238"/>
<path d="M32.6814 209.021C34.0326 208.205 35.4385 208.199 36.7885 209.021C35.4374 209.844 34.0314 209.837 32.6814 209.021Z" fill="#263238"/>
<path d="M38.2647 214.491C37.4516 213.135 37.4445 211.725 38.2647 210.371C39.085 211.725 39.079 213.135 38.2647 214.491Z" fill="#263238"/>
<path d="M43.7171 208.89C42.3659 209.705 40.9612 209.711 39.61 208.89C40.96 208.067 42.3659 208.073 43.7171 208.89Z" fill="#263238"/>
</svg>
